<?xml version="1.0" encoding="utf-8" standalone="no"?>
<!DOCTYPE svg PUBLIC "-//W3C//DTD SVG 1.1//EN"
  "http://www.w3.org/Graphics/SVG/1.1/DTD/svg11.dtd">
<!-- Created with matplotlib (https://matplotlib.org/) -->
<svg height="296.294656pt" version="1.1" viewBox="0 0 403.241844 296.294656" width="403.241844pt" xmlns="http://www.w3.org/2000/svg" xmlns:xlink="http://www.w3.org/1999/xlink">
 <defs>
  <style type="text/css">
*{stroke-linecap:butt;stroke-linejoin:round;}
  </style>
 </defs>
 <g id="figure_1">
  <g id="patch_1">
   <path d="M 0 296.294656 
L 403.241844 296.294656 
L 403.241844 0 
L 0 0 
z
" style="fill:#ffffff;"/>
  </g>
  <g id="axes_1">
   <g id="patch_2">
    <path d="M 61.241844 241.277813 
L 396.041844 241.277813 
L 396.041844 23.837812 
L 61.241844 23.837812 
z
" style="fill:#ffffff;"/>
   </g>
   <g id="PathCollection_1">
    <path clip-path="url(#p2de3a40107)" d="M 228.641844 231.894176 
C 228.774445 231.894176 228.901634 231.841493 228.995397 231.74773 
C 229.089161 231.653966 229.141844 231.526778 229.141844 231.394176 
C 229.141844 231.261575 229.089161 231.134386 228.995397 231.040623 
C 228.901634 230.946859 228.774445 230.894176 228.641844 230.894176 
C 228.509242 230.894176 228.382054 230.946859 228.28829 231.040623 
C 228.194527 231.134386 228.141844 231.261575 228.141844 231.394176 
C 228.141844 231.526778 228.194527 231.653966 228.28829 231.74773 
C 228.382054 231.841493 228.509242 231.894176 228.641844 231.894176 
z
" style="fill:#1f77b4;stroke:#1f77b4;"/>
    <path clip-path="url(#p2de3a40107)" d="M 228.641844 229.897902 
C 228.774445 229.897902 228.901634 229.845219 228.995397 229.751455 
C 229.089161 229.657692 229.141844 229.530504 229.141844 229.397902 
C 229.141844 229.2653 229.089161 229.138112 228.995397 229.044349 
C 228.901634 228.950585 228.774445 228.897902 228.641844 228.897902 
C 228.509242 228.897902 228.382054 228.950585 228.28829 229.044349 
C 228.194527 229.138112 228.141844 229.2653 228.141844 229.397902 
C 228.141844 229.530504 228.194527 229.657692 228.28829 229.751455 
C 228.382054 229.845219 228.509242 229.897902 228.641844 229.897902 
z
" style="fill:#1f77b4;stroke:#1f77b4;"/>
    <path clip-path="url(#p2de3a40107)" d="M 228.641844 227.901628 
C 228.774445 227.901628 228.901634 227.848945 228.995397 227.755181 
C 229.089161 227.661418 229.141844 227.534229 229.141844 227.401628 
C 229.141844 227.269026 229.089161 227.141838 228.995397 227.048074 
C 228.901634 226.954311 228.774445 226.901628 228.641844 226.901628 
C 228.509242 226.901628 228.382054 226.954311 228.28829 227.048074 
C 228.194527 227.141838 228.141844 227.269026 228.141844 227.401628 
C 228.141844 227.534229 228.194527 227.661418 228.28829 227.755181 
C 228.382054 227.848945 228.509242 227.901628 228.641844 227.901628 
z
" style="fill:#1f77b4;stroke:#1f77b4;"/>
    <path clip-path="url(#p2de3a40107)" d="M 228.641844 225.905354 
C 228.774445 225.905354 228.901634 225.852671 228.995397 225.758907 
C 229.089161 225.665144 229.141844 225.537955 229.141844 225.405354 
C 229.141844 225.272752 229.089161 225.145564 228.995397 225.0518 
C 228.901634 224.958037 228.774445 224.905354 228.641844 224.905354 
C 228.509242 224.905354 228.382054 224.958037 228.28829 225.0518 
C 228.194527 225.145564 228.141844 225.272752 228.141844 225.405354 
C 228.141844 225.537955 228.194527 225.665144 228.28829 225.758907 
C 228.382054 225.852671 228.509242 225.905354 228.641844 225.905354 
z
" style="fill:#1f77b4;stroke:#1f77b4;"/>
    <path clip-path="url(#p2de3a40107)" d="M 228.641844 223.90908 
C 228.774445 223.90908 228.901634 223.856396 228.995397 223.762633 
C 229.089161 223.66887 229.141844 223.541681 229.141844 223.40908 
C 229.141844 223.276478 229.089161 223.14929 228.995397 223.055526 
C 228.901634 222.961763 228.774445 222.90908 228.641844 222.90908 
C 228.509242 222.90908 228.382054 222.961763 228.28829 223.055526 
C 228.194527 223.14929 228.141844 223.276478 228.141844 223.40908 
C 228.141844 223.541681 228.194527 223.66887 228.28829 223.762633 
C 228.382054 223.856396 228.509242 223.90908 228.641844 223.90908 
z
" style="fill:#1f77b4;stroke:#1f77b4;"/>
    <path clip-path="url(#p2de3a40107)" d="M 228.641844 221.912806 
C 228.774445 221.912806 228.901634 221.860122 228.995397 221.766359 
C 229.089161 221.672595 229.141844 221.545407 229.141844 221.412806 
C 229.141844 221.280204 229.089161 221.153016 228.995397 221.059252 
C 228.901634 220.965489 228.774445 220.912806 228.641844 220.912806 
C 228.509242 220.912806 228.382054 220.965489 228.28829 221.059252 
C 228.194527 221.153016 228.141844 221.280204 228.141844 221.412806 
C 228.141844 221.545407 228.194527 221.672595 228.28829 221.766359 
C 228.382054 221.860122 228.509242 221.912806 228.641844 221.912806 
z
" style="fill:#1f77b4;stroke:#1f77b4;"/>
    <path clip-path="url(#p2de3a40107)" d="M 228.641844 219.916531 
C 228.774445 219.916531 228.901634 219.863848 228.995397 219.770085 
C 229.089161 219.676321 229.141844 219.549133 229.141844 219.416531 
C 229.141844 219.28393 229.089161 219.156741 228.995397 219.062978 
C 228.901634 218.969215 228.774445 218.916531 228.641844 218.916531 
C 228.509242 218.916531 228.382054 218.969215 228.28829 219.062978 
C 228.194527 219.156741 228.141844 219.28393 228.141844 219.416531 
C 228.141844 219.549133 228.194527 219.676321 228.28829 219.770085 
C 228.382054 219.863848 228.509242 219.916531 228.641844 219.916531 
z
" style="fill:#1f77b4;stroke:#1f77b4;"/>
    <path clip-path="url(#p2de3a40107)" d="M 228.641844 217.920257 
C 228.774445 217.920257 228.901634 217.867574 228.995397 217.773811 
C 229.089161 217.680047 229.141844 217.552859 229.141844 217.420257 
C 229.141844 217.287656 229.089161 217.160467 228.995397 217.066704 
C 228.901634 216.97294 228.774445 216.920257 228.641844 216.920257 
C 228.509242 216.920257 228.382054 216.97294 228.28829 217.066704 
C 228.194527 217.160467 228.141844 217.287656 228.141844 217.420257 
C 228.141844 217.552859 228.194527 217.680047 228.28829 217.773811 
C 228.382054 217.867574 228.509242 217.920257 228.641844 217.920257 
z
" style="fill:#1f77b4;stroke:#1f77b4;"/>
    <path clip-path="url(#p2de3a40107)" d="M 228.641844 215.923983 
C 228.774445 215.923983 228.901634 215.8713 228.995397 215.777537 
C 229.089161 215.683773 229.141844 215.556585 229.141844 215.423983 
C 229.141844 215.291382 229.089161 215.164193 228.995397 215.07043 
C 228.901634 214.976666 228.774445 214.923983 228.641844 214.923983 
C 228.509242 214.923983 228.382054 214.976666 228.28829 215.07043 
C 228.194527 215.164193 228.141844 215.291382 228.141844 215.423983 
C 228.141844 215.556585 228.194527 215.683773 228.28829 215.777537 
C 228.382054 215.8713 228.509242 215.923983 228.641844 215.923983 
z
" style="fill:#1f77b4;stroke:#1f77b4;"/>
    <path clip-path="url(#p2de3a40107)" d="M 228.641844 213.927709 
C 228.774445 213.927709 228.901634 213.875026 228.995397 213.781262 
C 229.089161 213.687499 229.141844 213.560311 229.141844 213.427709 
C 229.141844 213.295107 229.089161 213.167919 228.995397 213.074156 
C 228.901634 212.980392 228.774445 212.927709 228.641844 212.927709 
C 228.509242 212.927709 228.382054 212.980392 228.28829 213.074156 
C 228.194527 213.167919 228.141844 213.295107 228.141844 213.427709 
C 228.141844 213.560311 228.194527 213.687499 228.28829 213.781262 
C 228.382054 213.875026 228.509242 213.927709 228.641844 213.927709 
z
" style="fill:#1f77b4;stroke:#1f77b4;"/>
    <path clip-path="url(#p2de3a40107)" d="M 228.641844 211.923117 
C 228.774445 211.923117 228.901634 211.870434 228.995397 211.77667 
C 229.089161 211.682907 229.141844 211.555719 229.141844 211.423117 
C 229.141844 211.290516 229.089161 211.163327 228.995397 211.069564 
C 228.901634 210.9758 228.774445 210.923117 228.641844 210.923117 
C 228.509242 210.923117 228.382054 210.9758 228.28829 211.069564 
C 228.194527 211.163327 228.141844 211.290516 228.141844 211.423117 
C 228.141844 211.555719 228.194527 211.682907 228.28829 211.77667 
C 228.382054 211.870434 228.509242 211.923117 228.641844 211.923117 
z
" style="fill:#1f77b4;stroke:#1f77b4;"/>
    <path clip-path="url(#p2de3a40107)" d="M 228.641844 209.926843 
C 228.774445 209.926843 228.901634 209.87416 228.995397 209.780396 
C 229.089161 209.686633 229.141844 209.559445 229.141844 209.426843 
C 229.141844 209.294241 229.089161 209.167053 228.995397 209.07329 
C 228.901634 208.979526 228.774445 208.926843 228.641844 208.926843 
C 228.509242 208.926843 228.382054 208.979526 228.28829 209.07329 
C 228.194527 209.167053 228.141844 209.294241 228.141844 209.426843 
C 228.141844 209.559445 228.194527 209.686633 228.28829 209.780396 
C 228.382054 209.87416 228.509242 209.926843 228.641844 209.926843 
z
" style="fill:#1f77b4;stroke:#1f77b4;"/>
    <path clip-path="url(#p2de3a40107)" d="M 228.641844 207.930569 
C 228.774445 207.930569 228.901634 207.877886 228.995397 207.784122 
C 229.089161 207.690359 229.141844 207.56317 229.141844 207.430569 
C 229.141844 207.297967 229.089161 207.170779 228.995397 207.077015 
C 228.901634 206.983252 228.774445 206.930569 228.641844 206.930569 
C 228.509242 206.930569 228.382054 206.983252 228.28829 207.077015 
C 228.194527 207.170779 228.141844 207.297967 228.141844 207.430569 
C 228.141844 207.56317 228.194527 207.690359 228.28829 207.784122 
C 228.382054 207.877886 228.509242 207.930569 228.641844 207.930569 
z
" style="fill:#1f77b4;stroke:#1f77b4;"/>
    <path clip-path="url(#p2de3a40107)" d="M 228.641844 205.934295 
C 228.774445 205.934295 228.901634 205.881612 228.995397 205.787848 
C 229.089161 205.694085 229.141844 205.566896 229.141844 205.434295 
C 229.141844 205.301693 229.089161 205.174505 228.995397 205.080741 
C 228.901634 204.986978 228.774445 204.934295 228.641844 204.934295 
C 228.509242 204.934295 228.382054 204.986978 228.28829 205.080741 
C 228.194527 205.174505 228.141844 205.301693 228.141844 205.434295 
C 228.141844 205.566896 228.194527 205.694085 228.28829 205.787848 
C 228.382054 205.881612 228.509242 205.934295 228.641844 205.934295 
z
" style="fill:#1f77b4;stroke:#1f77b4;"/>
    <path clip-path="url(#p2de3a40107)" d="M 228.641844 203.938021 
C 228.774445 203.938021 228.901634 203.885337 228.995397 203.791574 
C 229.089161 203.697811 229.141844 203.570622 229.141844 203.438021 
C 229.141844 203.305419 229.089161 203.178231 228.995397 203.084467 
C 228.901634 202.990704 228.774445 202.938021 228.641844 202.938021 
C 228.509242 202.938021 228.382054 202.990704 228.28829 203.084467 
C 228.194527 203.178231 228.141844 203.305419 228.141844 203.438021 
C 228.141844 203.570622 228.194527 203.697811 228.28829 203.791574 
C 228.382054 203.885337 228.509242 203.938021 228.641844 203.938021 
z
" style="fill:#1f77b4;stroke:#1f77b4;"/>
    <path clip-path="url(#p2de3a40107)" d="M 228.641844 201.941746 
C 228.774445 201.941746 228.901634 201.889063 228.995397 201.7953 
C 229.089161 201.701536 229.141844 201.574348 229.141844 201.441746 
C 229.141844 201.309145 229.089161 201.181957 228.995397 201.088193 
C 228.901634 200.99443 228.774445 200.941746 228.641844 200.941746 
C 228.509242 200.941746 228.382054 200.99443 228.28829 201.088193 
C 228.194527 201.181957 228.141844 201.309145 228.141844 201.441746 
C 228.141844 201.574348 228.194527 201.701536 228.28829 201.7953 
C 228.382054 201.889063 228.509242 201.941746 228.641844 201.941746 
z
" style="fill:#1f77b4;stroke:#1f77b4;"/>
    <path clip-path="url(#p2de3a40107)" d="M 228.641844 199.945472 
C 228.774445 199.945472 228.901634 199.892789 228.995397 199.799026 
C 229.089161 199.705262 229.141844 199.578074 229.141844 199.445472 
C 229.141844 199.312871 229.089161 199.185682 228.995397 199.091919 
C 228.901634 198.998156 228.774445 198.945472 228.641844 198.945472 
C 228.509242 198.945472 228.382054 198.998156 228.28829 199.091919 
C 228.194527 199.185682 228.141844 199.312871 228.141844 199.445472 
C 228.141844 199.578074 228.194527 199.705262 228.28829 199.799026 
C 228.382054 199.892789 228.509242 199.945472 228.641844 199.945472 
z
" style="fill:#1f77b4;stroke:#1f77b4;"/>
    <path clip-path="url(#p2de3a40107)" d="M 228.641844 197.949198 
C 228.774445 197.949198 228.901634 197.896515 228.995397 197.802752 
C 229.089161 197.708988 229.141844 197.5818 229.141844 197.449198 
C 229.141844 197.316597 229.089161 197.189408 228.995397 197.095645 
C 228.901634 197.001881 228.774445 196.949198 228.641844 196.949198 
C 228.509242 196.949198 228.382054 197.001881 228.28829 197.095645 
C 228.194527 197.189408 228.141844 197.316597 228.141844 197.449198 
C 228.141844 197.5818 228.194527 197.708988 228.28829 197.802752 
C 228.382054 197.896515 228.509242 197.949198 228.641844 197.949198 
z
" style="fill:#1f77b4;stroke:#1f77b4;"/>
    <path clip-path="url(#p2de3a40107)" d="M 228.641844 195.952924 
C 228.774445 195.952924 228.901634 195.900241 228.995397 195.806477 
C 229.089161 195.712714 229.141844 195.585526 229.141844 195.452924 
C 229.141844 195.320323 229.089161 195.193134 228.995397 195.099371 
C 228.901634 195.005607 228.774445 194.952924 228.641844 194.952924 
C 228.509242 194.952924 228.382054 195.005607 228.28829 195.099371 
C 228.194527 195.193134 228.141844 195.320323 228.141844 195.452924 
C 228.141844 195.585526 228.194527 195.712714 228.28829 195.806477 
C 228.382054 195.900241 228.509242 195.952924 228.641844 195.952924 
z
" style="fill:#1f77b4;stroke:#1f77b4;"/>
    <path clip-path="url(#p2de3a40107)" d="M 228.641844 193.95665 
C 228.774445 193.95665 228.901634 193.903967 228.995397 193.810203 
C 229.089161 193.71644 229.141844 193.589252 229.141844 193.45665 
C 229.141844 193.324048 229.089161 193.19686 228.995397 193.103097 
C 228.901634 193.009333 228.774445 192.95665 228.641844 192.95665 
C 228.509242 192.95665 228.382054 193.009333 228.28829 193.103097 
C 228.194527 193.19686 228.141844 193.324048 228.141844 193.45665 
C 228.141844 193.589252 228.194527 193.71644 228.28829 193.810203 
C 228.382054 193.903967 228.509242 193.95665 228.641844 193.95665 
z
" style="fill:#1f77b4;stroke:#1f77b4;"/>
    <path clip-path="url(#p2de3a40107)" d="M 228.641844 191.960376 
C 228.774445 191.960376 228.901634 191.907693 228.995397 191.813929 
C 229.089161 191.720166 229.141844 191.592977 229.141844 191.460376 
C 229.141844 191.327774 229.089161 191.200586 228.995397 191.106822 
C 228.901634 191.013059 228.774445 190.960376 228.641844 190.960376 
C 228.509242 190.960376 228.382054 191.013059 228.28829 191.106822 
C 228.194527 191.200586 228.141844 191.327774 228.141844 191.460376 
C 228.141844 191.592977 228.194527 191.720166 228.28829 191.813929 
C 228.382054 191.907693 228.509242 191.960376 228.641844 191.960376 
z
" style="fill:#1f77b4;stroke:#1f77b4;"/>
    <path clip-path="url(#p2de3a40107)" d="M 228.641844 189.964102 
C 228.774445 189.964102 228.901634 189.911419 228.995397 189.817655 
C 229.089161 189.723892 229.141844 189.596703 229.141844 189.464102 
C 229.141844 189.3315 229.089161 189.204312 228.995397 189.110548 
C 228.901634 189.016785 228.774445 188.964102 228.641844 188.964102 
C 228.509242 188.964102 228.382054 189.016785 228.28829 189.110548 
C 228.194527 189.204312 228.141844 189.3315 228.141844 189.464102 
C 228.141844 189.596703 228.194527 189.723892 228.28829 189.817655 
C 228.382054 189.911419 228.509242 189.964102 228.641844 189.964102 
z
" style="fill:#1f77b4;stroke:#1f77b4;"/>
    <path clip-path="url(#p2de3a40107)" d="M 228.641844 187.967828 
C 228.774445 187.967828 228.901634 187.915144 228.995397 187.821381 
C 229.089161 187.727618 229.141844 187.600429 229.141844 187.467828 
C 229.141844 187.335226 229.089161 187.208038 228.995397 187.114274 
C 228.901634 187.020511 228.774445 186.967828 228.641844 186.967828 
C 228.509242 186.967828 228.382054 187.020511 228.28829 187.114274 
C 228.194527 187.208038 228.141844 187.335226 228.141844 187.467828 
C 228.141844 187.600429 228.194527 187.727618 228.28829 187.821381 
C 228.382054 187.915144 228.509242 187.967828 228.641844 187.967828 
z
" style="fill:#1f77b4;stroke:#1f77b4;"/>
    <path clip-path="url(#p2de3a40107)" d="M 228.641844 185.971553 
C 228.774445 185.971553 228.901634 185.91887 228.995397 185.825107 
C 229.089161 185.731343 229.141844 185.604155 229.141844 185.471553 
C 229.141844 185.338952 229.089161 185.211764 228.995397 185.118 
C 228.901634 185.024237 228.774445 184.971553 228.641844 184.971553 
C 228.509242 184.971553 228.382054 185.024237 228.28829 185.118 
C 228.194527 185.211764 228.141844 185.338952 228.141844 185.471553 
C 228.141844 185.604155 228.194527 185.731343 228.28829 185.825107 
C 228.382054 185.91887 228.509242 185.971553 228.641844 185.971553 
z
" style="fill:#1f77b4;stroke:#1f77b4;"/>
    <path clip-path="url(#p2de3a40107)" d="M 228.641844 183.975279 
C 228.774445 183.975279 228.901634 183.922596 228.995397 183.828833 
C 229.089161 183.735069 229.141844 183.607881 229.141844 183.475279 
C 229.141844 183.342678 229.089161 183.215489 228.995397 183.121726 
C 228.901634 183.027963 228.774445 182.975279 228.641844 182.975279 
C 228.509242 182.975279 228.382054 183.027963 228.28829 183.121726 
C 228.194527 183.215489 228.141844 183.342678 228.141844 183.475279 
C 228.141844 183.607881 228.194527 183.735069 228.28829 183.828833 
C 228.382054 183.922596 228.509242 183.975279 228.641844 183.975279 
z
" style="fill:#1f77b4;stroke:#1f77b4;"/>
    <path clip-path="url(#p2de3a40107)" d="M 228.641844 181.979005 
C 228.774445 181.979005 228.901634 181.926322 228.995397 181.832559 
C 229.089161 181.738795 229.141844 181.611607 229.141844 181.479005 
C 229.141844 181.346404 229.089161 181.219215 228.995397 181.125452 
C 228.901634 181.031688 228.774445 180.979005 228.641844 180.979005 
C 228.509242 180.979005 228.382054 181.031688 228.28829 181.125452 
C 228.194527 181.219215 228.141844 181.346404 228.141844 181.479005 
C 228.141844 181.611607 228.194527 181.738795 228.28829 181.832559 
C 228.382054 181.926322 228.509242 181.979005 228.641844 181.979005 
z
" style="fill:#1f77b4;stroke:#1f77b4;"/>
    <path clip-path="url(#p2de3a40107)" d="M 228.641844 179.982731 
C 228.774445 179.982731 228.901634 179.930048 228.995397 179.836285 
C 229.089161 179.742521 229.141844 179.615333 229.141844 179.482731 
C 229.141844 179.35013 229.089161 179.222941 228.995397 179.129178 
C 228.901634 179.035414 228.774445 178.982731 228.641844 178.982731 
C 228.509242 178.982731 228.382054 179.035414 228.28829 179.129178 
C 228.194527 179.222941 228.141844 179.35013 228.141844 179.482731 
C 228.141844 179.615333 228.194527 179.742521 228.28829 179.836285 
C 228.382054 179.930048 228.509242 179.982731 228.641844 179.982731 
z
" style="fill:#1f77b4;stroke:#1f77b4;"/>
    <path clip-path="url(#p2de3a40107)" d="M 228.641844 177.986457 
C 228.774445 177.986457 228.901634 177.933774 228.995397 177.84001 
C 229.089161 177.746247 229.141844 177.619059 229.141844 177.486457 
C 229.141844 177.353855 229.089161 177.226667 228.995397 177.132904 
C 228.901634 177.03914 228.774445 176.986457 228.641844 176.986457 
C 228.509242 176.986457 228.382054 177.03914 228.28829 177.132904 
C 228.194527 177.226667 228.141844 177.353855 228.141844 177.486457 
C 228.141844 177.619059 228.194527 177.746247 228.28829 177.84001 
C 228.382054 177.933774 228.509242 177.986457 228.641844 177.986457 
z
" style="fill:#1f77b4;stroke:#1f77b4;"/>
    <path clip-path="url(#p2de3a40107)" d="M 228.641844 175.981865 
C 228.774445 175.981865 228.901634 175.929182 228.995397 175.835418 
C 229.089161 175.741655 229.141844 175.614467 229.141844 175.481865 
C 229.141844 175.349264 229.089161 175.222075 228.995397 175.128312 
C 228.901634 175.034548 228.774445 174.981865 228.641844 174.981865 
C 228.509242 174.981865 228.382054 175.034548 228.28829 175.128312 
C 228.194527 175.222075 228.141844 175.349264 228.141844 175.481865 
C 228.141844 175.614467 228.194527 175.741655 228.28829 175.835418 
C 228.382054 175.929182 228.509242 175.981865 228.641844 175.981865 
z
" style="fill:#1f77b4;stroke:#1f77b4;"/>
    <path clip-path="url(#p2de3a40107)" d="M 228.641844 173.985591 
C 228.774445 173.985591 228.901634 173.932908 228.995397 173.839144 
C 229.089161 173.745381 229.141844 173.618192 229.141844 173.485591 
C 229.141844 173.352989 229.089161 173.225801 228.995397 173.132038 
C 228.901634 173.038274 228.774445 172.985591 228.641844 172.985591 
C 228.509242 172.985591 228.382054 173.038274 228.28829 173.132038 
C 228.194527 173.225801 228.141844 173.352989 228.141844 173.485591 
C 228.141844 173.618192 228.194527 173.745381 228.28829 173.839144 
C 228.382054 173.932908 228.509242 173.985591 228.641844 173.985591 
z
" style="fill:#1f77b4;stroke:#1f77b4;"/>
    <path clip-path="url(#p2de3a40107)" d="M 228.641844 171.989317 
C 228.774445 171.989317 228.901634 171.936634 228.995397 171.84287 
C 229.089161 171.749107 229.141844 171.621918 229.141844 171.489317 
C 229.141844 171.356715 229.089161 171.229527 228.995397 171.135763 
C 228.901634 171.042 228.774445 170.989317 228.641844 170.989317 
C 228.509242 170.989317 228.382054 171.042 228.28829 171.135763 
C 228.194527 171.229527 228.141844 171.356715 228.141844 171.489317 
C 228.141844 171.621918 228.194527 171.749107 228.28829 171.84287 
C 228.382054 171.936634 228.509242 171.989317 228.641844 171.989317 
z
" style="fill:#1f77b4;stroke:#1f77b4;"/>
    <path clip-path="url(#p2de3a40107)" d="M 228.641844 169.993043 
C 228.774445 169.993043 228.901634 169.94036 228.995397 169.846596 
C 229.089161 169.752833 229.141844 169.625644 229.141844 169.493043 
C 229.141844 169.360441 229.089161 169.233253 228.995397 169.139489 
C 228.901634 169.045726 228.774445 168.993043 228.641844 168.993043 
C 228.509242 168.993043 228.382054 169.045726 228.28829 169.139489 
C 228.194527 169.233253 228.141844 169.360441 228.141844 169.493043 
C 228.141844 169.625644 228.194527 169.752833 228.28829 169.846596 
C 228.382054 169.94036 228.509242 169.993043 228.641844 169.993043 
z
" style="fill:#1f77b4;stroke:#1f77b4;"/>
    <path clip-path="url(#p2de3a40107)" d="M 228.641844 167.996769 
C 228.774445 167.996769 228.901634 167.944085 228.995397 167.850322 
C 229.089161 167.756559 229.141844 167.62937 229.141844 167.496769 
C 229.141844 167.364167 229.089161 167.236979 228.995397 167.143215 
C 228.901634 167.049452 228.774445 166.996769 228.641844 166.996769 
C 228.509242 166.996769 228.382054 167.049452 228.28829 167.143215 
C 228.194527 167.236979 228.141844 167.364167 228.141844 167.496769 
C 228.141844 167.62937 228.194527 167.756559 228.28829 167.850322 
C 228.382054 167.944085 228.509242 167.996769 228.641844 167.996769 
z
" style="fill:#1f77b4;stroke:#1f77b4;"/>
    <path clip-path="url(#p2de3a40107)" d="M 228.641844 166.000494 
C 228.774445 166.000494 228.901634 165.947811 228.995397 165.854048 
C 229.089161 165.760284 229.141844 165.633096 229.141844 165.500494 
C 229.141844 165.367893 229.089161 165.240705 228.995397 165.146941 
C 228.901634 165.053178 228.774445 165.000494 228.641844 165.000494 
C 228.509242 165.000494 228.382054 165.053178 228.28829 165.146941 
C 228.194527 165.240705 228.141844 165.367893 228.141844 165.500494 
C 228.141844 165.633096 228.194527 165.760284 228.28829 165.854048 
C 228.382054 165.947811 228.509242 166.000494 228.641844 166.000494 
z
" style="fill:#1f77b4;stroke:#1f77b4;"/>
    <path clip-path="url(#p2de3a40107)" d="M 228.641844 164.00422 
C 228.774445 164.00422 228.901634 163.951537 228.995397 163.857774 
C 229.089161 163.76401 229.141844 163.636822 229.141844 163.50422 
C 229.141844 163.371619 229.089161 163.24443 228.995397 163.150667 
C 228.901634 163.056903 228.774445 163.00422 228.641844 163.00422 
C 228.509242 163.00422 228.382054 163.056903 228.28829 163.150667 
C 228.194527 163.24443 228.141844 163.371619 228.141844 163.50422 
C 228.141844 163.636822 228.194527 163.76401 228.28829 163.857774 
C 228.382054 163.951537 228.509242 164.00422 228.641844 164.00422 
z
" style="fill:#1f77b4;stroke:#1f77b4;"/>
    <path clip-path="url(#p2de3a40107)" d="M 228.641844 162.007946 
C 228.774445 162.007946 228.901634 161.955263 228.995397 161.8615 
C 229.089161 161.767736 229.141844 161.640548 229.141844 161.507946 
C 229.141844 161.375345 229.089161 161.248156 228.995397 161.154393 
C 228.901634 161.060629 228.774445 161.007946 228.641844 161.007946 
C 228.509242 161.007946 228.382054 161.060629 228.28829 161.154393 
C 228.194527 161.248156 228.141844 161.375345 228.141844 161.507946 
C 228.141844 161.640548 228.194527 161.767736 228.28829 161.8615 
C 228.382054 161.955263 228.509242 162.007946 228.641844 162.007946 
z
" style="fill:#1f77b4;stroke:#1f77b4;"/>
    <path clip-path="url(#p2de3a40107)" d="M 228.641844 160.011672 
C 228.774445 160.011672 228.901634 159.958989 228.995397 159.865225 
C 229.089161 159.771462 229.141844 159.644274 229.141844 159.511672 
C 229.141844 159.379071 229.089161 159.251882 228.995397 159.158119 
C 228.901634 159.064355 228.774445 159.011672 228.641844 159.011672 
C 228.509242 159.011672 228.382054 159.064355 228.28829 159.158119 
C 228.194527 159.251882 228.141844 159.379071 228.141844 159.511672 
C 228.141844 159.644274 228.194527 159.771462 228.28829 159.865225 
C 228.382054 159.958989 228.509242 160.011672 228.641844 160.011672 
z
" style="fill:#1f77b4;stroke:#1f77b4;"/>
    <path clip-path="url(#p2de3a40107)" d="M 228.641844 158.015398 
C 228.774445 158.015398 228.901634 157.962715 228.995397 157.868951 
C 229.089161 157.775188 229.141844 157.647999 229.141844 157.515398 
C 229.141844 157.382796 229.089161 157.255608 228.995397 157.161845 
C 228.901634 157.068081 228.774445 157.015398 228.641844 157.015398 
C 228.509242 157.015398 228.382054 157.068081 228.28829 157.161845 
C 228.194527 157.255608 228.141844 157.382796 228.141844 157.515398 
C 228.141844 157.647999 228.194527 157.775188 228.28829 157.868951 
C 228.382054 157.962715 228.509242 158.015398 228.641844 158.015398 
z
" style="fill:#1f77b4;stroke:#1f77b4;"/>
    <path clip-path="url(#p2de3a40107)" d="M 228.641844 156.019124 
C 228.774445 156.019124 228.901634 155.966441 228.995397 155.872677 
C 229.089161 155.778914 229.141844 155.651725 229.141844 155.519124 
C 229.141844 155.386522 229.089161 155.259334 228.995397 155.16557 
C 228.901634 155.071807 228.774445 155.019124 228.641844 155.019124 
C 228.509242 155.019124 228.382054 155.071807 228.28829 155.16557 
C 228.194527 155.259334 228.141844 155.386522 228.141844 155.519124 
C 228.141844 155.651725 228.194527 155.778914 228.28829 155.872677 
C 228.382054 155.966441 228.509242 156.019124 228.641844 156.019124 
z
" style="fill:#1f77b4;stroke:#1f77b4;"/>
    <path clip-path="url(#p2de3a40107)" d="M 228.641844 154.02285 
C 228.774445 154.02285 228.901634 153.970167 228.995397 153.876403 
C 229.089161 153.78264 229.141844 153.655451 229.141844 153.52285 
C 229.141844 153.390248 229.089161 153.26306 228.995397 153.169296 
C 228.901634 153.075533 228.774445 153.02285 228.641844 153.02285 
C 228.509242 153.02285 228.382054 153.075533 228.28829 153.169296 
C 228.194527 153.26306 228.141844 153.390248 228.141844 153.52285 
C 228.141844 153.655451 228.194527 153.78264 228.28829 153.876403 
C 228.382054 153.970167 228.509242 154.02285 228.641844 154.02285 
z
" style="fill:#1f77b4;stroke:#1f77b4;"/>
    <path clip-path="url(#p2de3a40107)" d="M 228.641844 152.026576 
C 228.774445 152.026576 228.901634 151.973892 228.995397 151.880129 
C 229.089161 151.786366 229.141844 151.659177 229.141844 151.526576 
C 229.141844 151.393974 229.089161 151.266786 228.995397 151.173022 
C 228.901634 151.079259 228.774445 151.026576 228.641844 151.026576 
C 228.509242 151.026576 228.382054 151.079259 228.28829 151.173022 
C 228.194527 151.266786 228.141844 151.393974 228.141844 151.526576 
C 228.141844 151.659177 228.194527 151.786366 228.28829 151.880129 
C 228.382054 151.973892 228.509242 152.026576 228.641844 152.026576 
z
" style="fill:#1f77b4;stroke:#1f77b4;"/>
    <path clip-path="url(#p2de3a40107)" d="M 228.641844 150.030301 
C 228.774445 150.030301 228.901634 149.977618 228.995397 149.883855 
C 229.089161 149.790091 229.141844 149.662903 229.141844 149.530301 
C 229.141844 149.3977 229.089161 149.270512 228.995397 149.176748 
C 228.901634 149.082985 228.774445 149.030301 228.641844 149.030301 
C 228.509242 149.030301 228.382054 149.082985 228.28829 149.176748 
C 228.194527 149.270512 228.141844 149.3977 228.141844 149.530301 
C 228.141844 149.662903 228.194527 149.790091 228.28829 149.883855 
C 228.382054 149.977618 228.509242 150.030301 228.641844 150.030301 
z
" style="fill:#1f77b4;stroke:#1f77b4;"/>
    <path clip-path="url(#p2de3a40107)" d="M 228.641844 148.034027 
C 228.774445 148.034027 228.901634 147.981344 228.995397 147.887581 
C 229.089161 147.793817 229.141844 147.666629 229.141844 147.534027 
C 229.141844 147.401426 229.089161 147.274237 228.995397 147.180474 
C 228.901634 147.08671 228.774445 147.034027 228.641844 147.034027 
C 228.509242 147.034027 228.382054 147.08671 228.28829 147.180474 
C 228.194527 147.274237 228.141844 147.401426 228.141844 147.534027 
C 228.141844 147.666629 228.194527 147.793817 228.28829 147.887581 
C 228.382054 147.981344 228.509242 148.034027 228.641844 148.034027 
z
" style="fill:#1f77b4;stroke:#1f77b4;"/>
    <path clip-path="url(#p2de3a40107)" d="M 228.641844 146.037753 
C 228.774445 146.037753 228.901634 145.98507 228.995397 145.891307 
C 229.089161 145.797543 229.141844 145.670355 229.141844 145.537753 
C 229.141844 145.405152 229.089161 145.277963 228.995397 145.1842 
C 228.901634 145.090436 228.774445 145.037753 228.641844 145.037753 
C 228.509242 145.037753 228.382054 145.090436 228.28829 145.1842 
C 228.194527 145.277963 228.141844 145.405152 228.141844 145.537753 
C 228.141844 145.670355 228.194527 145.797543 228.28829 145.891307 
C 228.382054 145.98507 228.509242 146.037753 228.641844 146.037753 
z
" style="fill:#1f77b4;stroke:#1f77b4;"/>
    <path clip-path="url(#p2de3a40107)" d="M 228.641844 144.041479 
C 228.774445 144.041479 228.901634 143.988796 228.995397 143.895032 
C 229.089161 143.801269 229.141844 143.674081 229.141844 143.541479 
C 229.141844 143.408878 229.089161 143.281689 228.995397 143.187926 
C 228.901634 143.094162 228.774445 143.041479 228.641844 143.041479 
C 228.509242 143.041479 228.382054 143.094162 228.28829 143.187926 
C 228.194527 143.281689 228.141844 143.408878 228.141844 143.541479 
C 228.141844 143.674081 228.194527 143.801269 228.28829 143.895032 
C 228.382054 143.988796 228.509242 144.041479 228.641844 144.041479 
z
" style="fill:#1f77b4;stroke:#1f77b4;"/>
    <path clip-path="url(#p2de3a40107)" d="M 228.641844 142.045205 
C 228.774445 142.045205 228.901634 141.992522 228.995397 141.898758 
C 229.089161 141.804995 229.141844 141.677807 229.141844 141.545205 
C 229.141844 141.412603 229.089161 141.285415 228.995397 141.191652 
C 228.901634 141.097888 228.774445 141.045205 228.641844 141.045205 
C 228.509242 141.045205 228.382054 141.097888 228.28829 141.191652 
C 228.194527 141.285415 228.141844 141.412603 228.141844 141.545205 
C 228.141844 141.677807 228.194527 141.804995 228.28829 141.898758 
C 228.382054 141.992522 228.509242 142.045205 228.641844 142.045205 
z
" style="fill:#1f77b4;stroke:#1f77b4;"/>
    <path clip-path="url(#p2de3a40107)" d="M 228.641844 140.048931 
C 228.774445 140.048931 228.901634 139.996248 228.995397 139.902484 
C 229.089161 139.808721 229.141844 139.681532 229.141844 139.548931 
C 229.141844 139.416329 229.089161 139.289141 228.995397 139.195377 
C 228.901634 139.101614 228.774445 139.048931 228.641844 139.048931 
C 228.509242 139.048931 228.382054 139.101614 228.28829 139.195377 
C 228.194527 139.289141 228.141844 139.416329 228.141844 139.548931 
C 228.141844 139.681532 228.194527 139.808721 228.28829 139.902484 
C 228.382054 139.996248 228.509242 140.048931 228.641844 140.048931 
z
" style="fill:#1f77b4;stroke:#1f77b4;"/>
    <path clip-path="url(#p2de3a40107)" d="M 228.641844 138.044339 
C 228.774445 138.044339 228.901634 137.991656 228.995397 137.897892 
C 229.089161 137.804129 229.141844 137.67694 229.141844 137.544339 
C 229.141844 137.411737 229.089161 137.284549 228.995397 137.190786 
C 228.901634 137.097022 228.774445 137.044339 228.641844 137.044339 
C 228.509242 137.044339 228.382054 137.097022 228.28829 137.190786 
C 228.194527 137.284549 228.141844 137.411737 228.141844 137.544339 
C 228.141844 137.67694 228.194527 137.804129 228.28829 137.897892 
C 228.382054 137.991656 228.509242 138.044339 228.641844 138.044339 
z
" style="fill:#1f77b4;stroke:#1f77b4;"/>
    <path clip-path="url(#p2de3a40107)" d="M 228.641844 136.048065 
C 228.774445 136.048065 228.901634 135.995382 228.995397 135.901618 
C 229.089161 135.807855 229.141844 135.680666 229.141844 135.548065 
C 229.141844 135.415463 229.089161 135.288275 228.995397 135.194511 
C 228.901634 135.100748 228.774445 135.048065 228.641844 135.048065 
C 228.509242 135.048065 228.382054 135.100748 228.28829 135.194511 
C 228.194527 135.288275 228.141844 135.415463 228.141844 135.548065 
C 228.141844 135.680666 228.194527 135.807855 228.28829 135.901618 
C 228.382054 135.995382 228.509242 136.048065 228.641844 136.048065 
z
" style="fill:#1f77b4;stroke:#1f77b4;"/>
    <path clip-path="url(#p2de3a40107)" d="M 228.641844 134.051791 
C 228.774445 134.051791 228.901634 133.999108 228.995397 133.905344 
C 229.089161 133.811581 229.141844 133.684392 229.141844 133.551791 
C 229.141844 133.419189 229.089161 133.292001 228.995397 133.198237 
C 228.901634 133.104474 228.774445 133.051791 228.641844 133.051791 
C 228.509242 133.051791 228.382054 133.104474 228.28829 133.198237 
C 228.194527 133.292001 228.141844 133.419189 228.141844 133.551791 
C 228.141844 133.684392 228.194527 133.811581 228.28829 133.905344 
C 228.382054 133.999108 228.509242 134.051791 228.641844 134.051791 
z
" style="fill:#1f77b4;stroke:#1f77b4;"/>
    <path clip-path="url(#p2de3a40107)" d="M 228.641844 132.055517 
C 228.774445 132.055517 228.901634 132.002833 228.995397 131.90907 
C 229.089161 131.815306 229.141844 131.688118 229.141844 131.555517 
C 229.141844 131.422915 229.089161 131.295727 228.995397 131.201963 
C 228.901634 131.1082 228.774445 131.055517 228.641844 131.055517 
C 228.509242 131.055517 228.382054 131.1082 228.28829 131.201963 
C 228.194527 131.295727 228.141844 131.422915 228.141844 131.555517 
C 228.141844 131.688118 228.194527 131.815306 228.28829 131.90907 
C 228.382054 132.002833 228.509242 132.055517 228.641844 132.055517 
z
" style="fill:#1f77b4;stroke:#1f77b4;"/>
    <path clip-path="url(#p2de3a40107)" d="M 228.641844 130.059242 
C 228.774445 130.059242 228.901634 130.006559 228.995397 129.912796 
C 229.089161 129.819032 229.141844 129.691844 229.141844 129.559242 
C 229.141844 129.426641 229.089161 129.299452 228.995397 129.205689 
C 228.901634 129.111926 228.774445 129.059242 228.641844 129.059242 
C 228.509242 129.059242 228.382054 129.111926 228.28829 129.205689 
C 228.194527 129.299452 228.141844 129.426641 228.141844 129.559242 
C 228.141844 129.691844 228.194527 129.819032 228.28829 129.912796 
C 228.382054 130.006559 228.509242 130.059242 228.641844 130.059242 
z
" style="fill:#1f77b4;stroke:#1f77b4;"/>
    <path clip-path="url(#p2de3a40107)" d="M 228.641844 128.062968 
C 228.774445 128.062968 228.901634 128.010285 228.995397 127.916522 
C 229.089161 127.822758 229.141844 127.69557 229.141844 127.562968 
C 229.141844 127.430367 229.089161 127.303178 228.995397 127.209415 
C 228.901634 127.115651 228.774445 127.062968 228.641844 127.062968 
C 228.509242 127.062968 228.382054 127.115651 228.28829 127.209415 
C 228.194527 127.303178 228.141844 127.430367 228.141844 127.562968 
C 228.141844 127.69557 228.194527 127.822758 228.28829 127.916522 
C 228.382054 128.010285 228.509242 128.062968 228.641844 128.062968 
z
" style="fill:#1f77b4;stroke:#1f77b4;"/>
    <path clip-path="url(#p2de3a40107)" d="M 228.641844 126.066694 
C 228.774445 126.066694 228.901634 126.014011 228.995397 125.920248 
C 229.089161 125.826484 229.141844 125.699296 229.141844 125.566694 
C 229.141844 125.434093 229.089161 125.306904 228.995397 125.213141 
C 228.901634 125.119377 228.774445 125.066694 228.641844 125.066694 
C 228.509242 125.066694 228.382054 125.119377 228.28829 125.213141 
C 228.194527 125.306904 228.141844 125.434093 228.141844 125.566694 
C 228.141844 125.699296 228.194527 125.826484 228.28829 125.920248 
C 228.382054 126.014011 228.509242 126.066694 228.641844 126.066694 
z
" style="fill:#1f77b4;stroke:#1f77b4;"/>
    <path clip-path="url(#p2de3a40107)" d="M 228.641844 124.07042 
C 228.774445 124.07042 228.901634 124.017737 228.995397 123.923973 
C 229.089161 123.83021 229.141844 123.703022 229.141844 123.57042 
C 229.141844 123.437818 229.089161 123.31063 228.995397 123.216867 
C 228.901634 123.123103 228.774445 123.07042 228.641844 123.07042 
C 228.509242 123.07042 228.382054 123.123103 228.28829 123.216867 
C 228.194527 123.31063 228.141844 123.437818 228.141844 123.57042 
C 228.141844 123.703022 228.194527 123.83021 228.28829 123.923973 
C 228.382054 124.017737 228.509242 124.07042 228.641844 124.07042 
z
" style="fill:#1f77b4;stroke:#1f77b4;"/>
    <path clip-path="url(#p2de3a40107)" d="M 228.641844 122.074146 
C 228.774445 122.074146 228.901634 122.021463 228.995397 121.927699 
C 229.089161 121.833936 229.141844 121.706747 229.141844 121.574146 
C 229.141844 121.441544 229.089161 121.314356 228.995397 121.220593 
C 228.901634 121.126829 228.774445 121.074146 228.641844 121.074146 
C 228.509242 121.074146 228.382054 121.126829 228.28829 121.220593 
C 228.194527 121.314356 228.141844 121.441544 228.141844 121.574146 
C 228.141844 121.706747 228.194527 121.833936 228.28829 121.927699 
C 228.382054 122.021463 228.509242 122.074146 228.641844 122.074146 
z
" style="fill:#1f77b4;stroke:#1f77b4;"/>
    <path clip-path="url(#p2de3a40107)" d="M 228.641844 120.077872 
C 228.774445 120.077872 228.901634 120.025189 228.995397 119.931425 
C 229.089161 119.837662 229.141844 119.710473 229.141844 119.577872 
C 229.141844 119.44527 229.089161 119.318082 228.995397 119.224318 
C 228.901634 119.130555 228.774445 119.077872 228.641844 119.077872 
C 228.509242 119.077872 228.382054 119.130555 228.28829 119.224318 
C 228.194527 119.318082 228.141844 119.44527 228.141844 119.577872 
C 228.141844 119.710473 228.194527 119.837662 228.28829 119.931425 
C 228.382054 120.025189 228.509242 120.077872 228.641844 120.077872 
z
" style="fill:#1f77b4;stroke:#1f77b4;"/>
    <path clip-path="url(#p2de3a40107)" d="M 228.641844 118.081598 
C 228.774445 118.081598 228.901634 118.028915 228.995397 117.935151 
C 229.089161 117.841388 229.141844 117.714199 229.141844 117.581598 
C 229.141844 117.448996 229.089161 117.321808 228.995397 117.228044 
C 228.901634 117.134281 228.774445 117.081598 228.641844 117.081598 
C 228.509242 117.081598 228.382054 117.134281 228.28829 117.228044 
C 228.194527 117.321808 228.141844 117.448996 228.141844 117.581598 
C 228.141844 117.714199 228.194527 117.841388 228.28829 117.935151 
C 228.382054 118.028915 228.509242 118.081598 228.641844 118.081598 
z
" style="fill:#1f77b4;stroke:#1f77b4;"/>
    <path clip-path="url(#p2de3a40107)" d="M 228.641844 116.085324 
C 228.774445 116.085324 228.901634 116.03264 228.995397 115.938877 
C 229.089161 115.845113 229.141844 115.717925 229.141844 115.585324 
C 229.141844 115.452722 229.089161 115.325534 228.995397 115.23177 
C 228.901634 115.138007 228.774445 115.085324 228.641844 115.085324 
C 228.509242 115.085324 228.382054 115.138007 228.28829 115.23177 
C 228.194527 115.325534 228.141844 115.452722 228.141844 115.585324 
C 228.141844 115.717925 228.194527 115.845113 228.28829 115.938877 
C 228.382054 116.03264 228.509242 116.085324 228.641844 116.085324 
z
" style="fill:#1f77b4;stroke:#1f77b4;"/>
    <path clip-path="url(#p2de3a40107)" d="M 228.641844 114.089049 
C 228.774445 114.089049 228.901634 114.036366 228.995397 113.942603 
C 229.089161 113.848839 229.141844 113.721651 229.141844 113.589049 
C 229.141844 113.456448 229.089161 113.329259 228.995397 113.235496 
C 228.901634 113.141733 228.774445 113.089049 228.641844 113.089049 
C 228.509242 113.089049 228.382054 113.141733 228.28829 113.235496 
C 228.194527 113.329259 228.141844 113.456448 228.141844 113.589049 
C 228.141844 113.721651 228.194527 113.848839 228.28829 113.942603 
C 228.382054 114.036366 228.509242 114.089049 228.641844 114.089049 
z
" style="fill:#1f77b4;stroke:#1f77b4;"/>
    <path clip-path="url(#p2de3a40107)" d="M 228.641844 112.092775 
C 228.774445 112.092775 228.901634 112.040092 228.995397 111.946329 
C 229.089161 111.852565 229.141844 111.725377 229.141844 111.592775 
C 229.141844 111.460174 229.089161 111.332985 228.995397 111.239222 
C 228.901634 111.145458 228.774445 111.092775 228.641844 111.092775 
C 228.509242 111.092775 228.382054 111.145458 228.28829 111.239222 
C 228.194527 111.332985 228.141844 111.460174 228.141844 111.592775 
C 228.141844 111.725377 228.194527 111.852565 228.28829 111.946329 
C 228.382054 112.040092 228.509242 112.092775 228.641844 112.092775 
z
" style="fill:#1f77b4;stroke:#1f77b4;"/>
    <path clip-path="url(#p2de3a40107)" d="M 228.641844 110.096501 
C 228.774445 110.096501 228.901634 110.043818 228.995397 109.950055 
C 229.089161 109.856291 229.141844 109.729103 229.141844 109.596501 
C 229.141844 109.4639 229.089161 109.336711 228.995397 109.242948 
C 228.901634 109.149184 228.774445 109.096501 228.641844 109.096501 
C 228.509242 109.096501 228.382054 109.149184 228.28829 109.242948 
C 228.194527 109.336711 228.141844 109.4639 228.141844 109.596501 
C 228.141844 109.729103 228.194527 109.856291 228.28829 109.950055 
C 228.382054 110.043818 228.509242 110.096501 228.641844 110.096501 
z
" style="fill:#1f77b4;stroke:#1f77b4;"/>
    <path clip-path="url(#p2de3a40107)" d="M 228.641844 108.100227 
C 228.774445 108.100227 228.901634 108.047544 228.995397 107.95378 
C 229.089161 107.860017 229.141844 107.732829 229.141844 107.600227 
C 229.141844 107.467626 229.089161 107.340437 228.995397 107.246674 
C 228.901634 107.15291 228.774445 107.100227 228.641844 107.100227 
C 228.509242 107.100227 228.382054 107.15291 228.28829 107.246674 
C 228.194527 107.340437 228.141844 107.467626 228.141844 107.600227 
C 228.141844 107.732829 228.194527 107.860017 228.28829 107.95378 
C 228.382054 108.047544 228.509242 108.100227 228.641844 108.100227 
z
" style="fill:#1f77b4;stroke:#1f77b4;"/>
    <path clip-path="url(#p2de3a40107)" d="M 228.641844 106.103953 
C 228.774445 106.103953 228.901634 106.05127 228.995397 105.957506 
C 229.089161 105.863743 229.141844 105.736554 229.141844 105.603953 
C 229.141844 105.471351 229.089161 105.344163 228.995397 105.2504 
C 228.901634 105.156636 228.774445 105.103953 228.641844 105.103953 
C 228.509242 105.103953 228.382054 105.156636 228.28829 105.2504 
C 228.194527 105.344163 228.141844 105.471351 228.141844 105.603953 
C 228.141844 105.736554 228.194527 105.863743 228.28829 105.957506 
C 228.382054 106.05127 228.509242 106.103953 228.641844 106.103953 
z
" style="fill:#1f77b4;stroke:#1f77b4;"/>
    <path clip-path="url(#p2de3a40107)" d="M 228.641844 104.107679 
C 228.774445 104.107679 228.901634 104.054996 228.995397 103.961232 
C 229.089161 103.867469 229.141844 103.74028 229.141844 103.607679 
C 229.141844 103.475077 229.089161 103.347889 228.995397 103.254125 
C 228.901634 103.160362 228.774445 103.107679 228.641844 103.107679 
C 228.509242 103.107679 228.382054 103.160362 228.28829 103.254125 
C 228.194527 103.347889 228.141844 103.475077 228.141844 103.607679 
C 228.141844 103.74028 228.194527 103.867469 228.28829 103.961232 
C 228.382054 104.054996 228.509242 104.107679 228.641844 104.107679 
z
" style="fill:#1f77b4;stroke:#1f77b4;"/>
    <path clip-path="url(#p2de3a40107)" d="M 228.641844 102.103087 
C 228.774445 102.103087 228.901634 102.050404 228.995397 101.95664 
C 229.089161 101.862877 229.141844 101.735688 229.141844 101.603087 
C 229.141844 101.470485 229.089161 101.343297 228.995397 101.249533 
C 228.901634 101.15577 228.774445 101.103087 228.641844 101.103087 
C 228.509242 101.103087 228.382054 101.15577 228.28829 101.249533 
C 228.194527 101.343297 228.141844 101.470485 228.141844 101.603087 
C 228.141844 101.735688 228.194527 101.862877 228.28829 101.95664 
C 228.382054 102.050404 228.509242 102.103087 228.641844 102.103087 
z
" style="fill:#1f77b4;stroke:#1f77b4;"/>
    <path clip-path="url(#p2de3a40107)" d="M 228.641844 100.106813 
C 228.774445 100.106813 228.901634 100.05413 228.995397 99.960366 
C 229.089161 99.866603 229.141844 99.739414 229.141844 99.606813 
C 229.141844 99.474211 229.089161 99.347023 228.995397 99.253259 
C 228.901634 99.159496 228.774445 99.106813 228.641844 99.106813 
C 228.509242 99.106813 228.382054 99.159496 228.28829 99.253259 
C 228.194527 99.347023 228.141844 99.474211 228.141844 99.606813 
C 228.141844 99.739414 228.194527 99.866603 228.28829 99.960366 
C 228.382054 100.05413 228.509242 100.106813 228.641844 100.106813 
z
" style="fill:#1f77b4;stroke:#1f77b4;"/>
    <path clip-path="url(#p2de3a40107)" d="M 228.641844 98.110539 
C 228.774445 98.110539 228.901634 98.057855 228.995397 97.964092 
C 229.089161 97.870329 229.141844 97.74314 229.141844 97.610539 
C 229.141844 97.477937 229.089161 97.350749 228.995397 97.256985 
C 228.901634 97.163222 228.774445 97.110539 228.641844 97.110539 
C 228.509242 97.110539 228.382054 97.163222 228.28829 97.256985 
C 228.194527 97.350749 228.141844 97.477937 228.141844 97.610539 
C 228.141844 97.74314 228.194527 97.870329 228.28829 97.964092 
C 228.382054 98.057855 228.509242 98.110539 228.641844 98.110539 
z
" style="fill:#1f77b4;stroke:#1f77b4;"/>
    <path clip-path="url(#p2de3a40107)" d="M 228.641844 96.114265 
C 228.774445 96.114265 228.901634 96.061581 228.995397 95.967818 
C 229.089161 95.874054 229.141844 95.746866 229.141844 95.614265 
C 229.141844 95.481663 229.089161 95.354475 228.995397 95.260711 
C 228.901634 95.166948 228.774445 95.114265 228.641844 95.114265 
C 228.509242 95.114265 228.382054 95.166948 228.28829 95.260711 
C 228.194527 95.354475 228.141844 95.481663 228.141844 95.614265 
C 228.141844 95.746866 228.194527 95.874054 228.28829 95.967818 
C 228.382054 96.061581 228.509242 96.114265 228.641844 96.114265 
z
" style="fill:#1f77b4;stroke:#1f77b4;"/>
    <path clip-path="url(#p2de3a40107)" d="M 228.641844 94.11799 
C 228.774445 94.11799 228.901634 94.065307 228.995397 93.971544 
C 229.089161 93.87778 229.141844 93.750592 229.141844 93.61799 
C 229.141844 93.485389 229.089161 93.3582 228.995397 93.264437 
C 228.901634 93.170674 228.774445 93.11799 228.641844 93.11799 
C 228.509242 93.11799 228.382054 93.170674 228.28829 93.264437 
C 228.194527 93.3582 228.141844 93.485389 228.141844 93.61799 
C 228.141844 93.750592 228.194527 93.87778 228.28829 93.971544 
C 228.382054 94.065307 228.509242 94.11799 228.641844 94.11799 
z
" style="fill:#1f77b4;stroke:#1f77b4;"/>
    <path clip-path="url(#p2de3a40107)" d="M 228.641844 92.121716 
C 228.774445 92.121716 228.901634 92.069033 228.995397 91.97527 
C 229.089161 91.881506 229.141844 91.754318 229.141844 91.621716 
C 229.141844 91.489115 229.089161 91.361926 228.995397 91.268163 
C 228.901634 91.174399 228.774445 91.121716 228.641844 91.121716 
C 228.509242 91.121716 228.382054 91.174399 228.28829 91.268163 
C 228.194527 91.361926 228.141844 91.489115 228.141844 91.621716 
C 228.141844 91.754318 228.194527 91.881506 228.28829 91.97527 
C 228.382054 92.069033 228.509242 92.121716 228.641844 92.121716 
z
" style="fill:#1f77b4;stroke:#1f77b4;"/>
    <path clip-path="url(#p2de3a40107)" d="M 228.641844 90.125442 
C 228.774445 90.125442 228.901634 90.072759 228.995397 89.978996 
C 229.089161 89.885232 229.141844 89.758044 229.141844 89.625442 
C 229.141844 89.492841 229.089161 89.365652 228.995397 89.271889 
C 228.901634 89.178125 228.774445 89.125442 228.641844 89.125442 
C 228.509242 89.125442 228.382054 89.178125 228.28829 89.271889 
C 228.194527 89.365652 228.141844 89.492841 228.141844 89.625442 
C 228.141844 89.758044 228.194527 89.885232 228.28829 89.978996 
C 228.382054 90.072759 228.509242 90.125442 228.641844 90.125442 
z
" style="fill:#1f77b4;stroke:#1f77b4;"/>
    <path clip-path="url(#p2de3a40107)" d="M 228.641844 88.129168 
C 228.774445 88.129168 228.901634 88.076485 228.995397 87.982721 
C 229.089161 87.888958 229.141844 87.76177 229.141844 87.629168 
C 229.141844 87.496566 229.089161 87.369378 228.995397 87.275615 
C 228.901634 87.181851 228.774445 87.129168 228.641844 87.129168 
C 228.509242 87.129168 228.382054 87.181851 228.28829 87.275615 
C 228.194527 87.369378 228.141844 87.496566 228.141844 87.629168 
C 228.141844 87.76177 228.194527 87.888958 228.28829 87.982721 
C 228.382054 88.076485 228.509242 88.129168 228.641844 88.129168 
z
" style="fill:#1f77b4;stroke:#1f77b4;"/>
    <path clip-path="url(#p2de3a40107)" d="M 228.641844 86.132894 
C 228.774445 86.132894 228.901634 86.080211 228.995397 85.986447 
C 229.089161 85.892684 229.141844 85.765495 229.141844 85.632894 
C 229.141844 85.500292 229.089161 85.373104 228.995397 85.27934 
C 228.901634 85.185577 228.774445 85.132894 228.641844 85.132894 
C 228.509242 85.132894 228.382054 85.185577 228.28829 85.27934 
C 228.194527 85.373104 228.141844 85.500292 228.141844 85.632894 
C 228.141844 85.765495 228.194527 85.892684 228.28829 85.986447 
C 228.382054 86.080211 228.509242 86.132894 228.641844 86.132894 
z
" style="fill:#1f77b4;stroke:#1f77b4;"/>
    <path clip-path="url(#p2de3a40107)" d="M 228.641844 84.13662 
C 228.774445 84.13662 228.901634 84.083937 228.995397 83.990173 
C 229.089161 83.89641 229.141844 83.769221 229.141844 83.63662 
C 229.141844 83.504018 229.089161 83.37683 228.995397 83.283066 
C 228.901634 83.189303 228.774445 83.13662 228.641844 83.13662 
C 228.509242 83.13662 228.382054 83.189303 228.28829 83.283066 
C 228.194527 83.37683 228.141844 83.504018 228.141844 83.63662 
C 228.141844 83.769221 228.194527 83.89641 228.28829 83.990173 
C 228.382054 84.083937 228.509242 84.13662 228.641844 84.13662 
z
" style="fill:#1f77b4;stroke:#1f77b4;"/>
    <path clip-path="url(#p2de3a40107)" d="M 228.641844 82.140346 
C 228.774445 82.140346 228.901634 82.087662 228.995397 81.993899 
C 229.089161 81.900136 229.141844 81.772947 229.141844 81.640346 
C 229.141844 81.507744 229.089161 81.380556 228.995397 81.286792 
C 228.901634 81.193029 228.774445 81.140346 228.641844 81.140346 
C 228.509242 81.140346 228.382054 81.193029 228.28829 81.286792 
C 228.194527 81.380556 228.141844 81.507744 228.141844 81.640346 
C 228.141844 81.772947 228.194527 81.900136 228.28829 81.993899 
C 228.382054 82.087662 228.509242 82.140346 228.641844 82.140346 
z
" style="fill:#1f77b4;stroke:#1f77b4;"/>
    <path clip-path="url(#p2de3a40107)" d="M 228.641844 80.144072 
C 228.774445 80.144072 228.901634 80.091388 228.995397 79.997625 
C 229.089161 79.903861 229.141844 79.776673 229.141844 79.644072 
C 229.141844 79.51147 229.089161 79.384282 228.995397 79.290518 
C 228.901634 79.196755 228.774445 79.144072 228.641844 79.144072 
C 228.509242 79.144072 228.382054 79.196755 228.28829 79.290518 
C 228.194527 79.384282 228.141844 79.51147 228.141844 79.644072 
C 228.141844 79.776673 228.194527 79.903861 228.28829 79.997625 
C 228.382054 80.091388 228.509242 80.144072 228.641844 80.144072 
z
" style="fill:#1f77b4;stroke:#1f77b4;"/>
    <path clip-path="url(#p2de3a40107)" d="M 228.641844 78.147797 
C 228.774445 78.147797 228.901634 78.095114 228.995397 78.001351 
C 229.089161 77.907587 229.141844 77.780399 229.141844 77.647797 
C 229.141844 77.515196 229.089161 77.388007 228.995397 77.294244 
C 228.901634 77.200481 228.774445 77.147797 228.641844 77.147797 
C 228.509242 77.147797 228.382054 77.200481 228.28829 77.294244 
C 228.194527 77.388007 228.141844 77.515196 228.141844 77.647797 
C 228.141844 77.780399 228.194527 77.907587 228.28829 78.001351 
C 228.382054 78.095114 228.509242 78.147797 228.641844 78.147797 
z
" style="fill:#1f77b4;stroke:#1f77b4;"/>
    <path clip-path="url(#p2de3a40107)" d="M 228.641844 76.151523 
C 228.774445 76.151523 228.901634 76.09884 228.995397 76.005077 
C 229.089161 75.911313 229.141844 75.784125 229.141844 75.651523 
C 229.141844 75.518922 229.089161 75.391733 228.995397 75.29797 
C 228.901634 75.204206 228.774445 75.151523 228.641844 75.151523 
C 228.509242 75.151523 228.382054 75.204206 228.28829 75.29797 
C 228.194527 75.391733 228.141844 75.518922 228.141844 75.651523 
C 228.141844 75.784125 228.194527 75.911313 228.28829 76.005077 
C 228.382054 76.09884 228.509242 76.151523 228.641844 76.151523 
z
" style="fill:#1f77b4;stroke:#1f77b4;"/>
    <path clip-path="url(#p2de3a40107)" d="M 228.641844 74.155249 
C 228.774445 74.155249 228.901634 74.102566 228.995397 74.008803 
C 229.089161 73.915039 229.141844 73.787851 229.141844 73.655249 
C 229.141844 73.522648 229.089161 73.395459 228.995397 73.301696 
C 228.901634 73.207932 228.774445 73.155249 228.641844 73.155249 
C 228.509242 73.155249 228.382054 73.207932 228.28829 73.301696 
C 228.194527 73.395459 228.141844 73.522648 228.141844 73.655249 
C 228.141844 73.787851 228.194527 73.915039 228.28829 74.008803 
C 228.382054 74.102566 228.509242 74.155249 228.641844 74.155249 
z
" style="fill:#1f77b4;stroke:#1f77b4;"/>
    <path clip-path="url(#p2de3a40107)" d="M 228.641844 72.158975 
C 228.774445 72.158975 228.901634 72.106292 228.995397 72.012528 
C 229.089161 71.918765 229.141844 71.791577 229.141844 71.658975 
C 229.141844 71.526373 229.089161 71.399185 228.995397 71.305422 
C 228.901634 71.211658 228.774445 71.158975 228.641844 71.158975 
C 228.509242 71.158975 228.382054 71.211658 228.28829 71.305422 
C 228.194527 71.399185 228.141844 71.526373 228.141844 71.658975 
C 228.141844 71.791577 228.194527 71.918765 228.28829 72.012528 
C 228.382054 72.106292 228.509242 72.158975 228.641844 72.158975 
z
" style="fill:#1f77b4;stroke:#1f77b4;"/>
    <path clip-path="url(#p2de3a40107)" d="M 228.641844 70.162701 
C 228.774445 70.162701 228.901634 70.110018 228.995397 70.016254 
C 229.089161 69.922491 229.141844 69.795302 229.141844 69.662701 
C 229.141844 69.530099 229.089161 69.402911 228.995397 69.309148 
C 228.901634 69.215384 228.774445 69.162701 228.641844 69.162701 
C 228.509242 69.162701 228.382054 69.215384 228.28829 69.309148 
C 228.194527 69.402911 228.141844 69.530099 228.141844 69.662701 
C 228.141844 69.795302 228.194527 69.922491 228.28829 70.016254 
C 228.382054 70.110018 228.509242 70.162701 228.641844 70.162701 
z
" style="fill:#1f77b4;stroke:#1f77b4;"/>
    <path clip-path="url(#p2de3a40107)" d="M 228.641844 68.166427 
C 228.774445 68.166427 228.901634 68.113744 228.995397 68.01998 
C 229.089161 67.926217 229.141844 67.799028 229.141844 67.666427 
C 229.141844 67.533825 229.089161 67.406637 228.995397 67.312873 
C 228.901634 67.21911 228.774445 67.166427 228.641844 67.166427 
C 228.509242 67.166427 228.382054 67.21911 228.28829 67.312873 
C 228.194527 67.406637 228.141844 67.533825 228.141844 67.666427 
C 228.141844 67.799028 228.194527 67.926217 228.28829 68.01998 
C 228.382054 68.113744 228.509242 68.166427 228.641844 68.166427 
z
" style="fill:#1f77b4;stroke:#1f77b4;"/>
    <path clip-path="url(#p2de3a40107)" d="M 228.641844 66.161835 
C 228.774445 66.161835 228.901634 66.109152 228.995397 66.015388 
C 229.089161 65.921625 229.141844 65.794436 229.141844 65.661835 
C 229.141844 65.529233 229.089161 65.402045 228.995397 65.308281 
C 228.901634 65.214518 228.774445 65.161835 228.641844 65.161835 
C 228.509242 65.161835 228.382054 65.214518 228.28829 65.308281 
C 228.194527 65.402045 228.141844 65.529233 228.141844 65.661835 
C 228.141844 65.794436 228.194527 65.921625 228.28829 66.015388 
C 228.382054 66.109152 228.509242 66.161835 228.641844 66.161835 
z
" style="fill:#1f77b4;stroke:#1f77b4;"/>
    <path clip-path="url(#p2de3a40107)" d="M 228.641844 64.165561 
C 228.774445 64.165561 228.901634 64.112878 228.995397 64.019114 
C 229.089161 63.925351 229.141844 63.798162 229.141844 63.665561 
C 229.141844 63.532959 229.089161 63.405771 228.995397 63.312007 
C 228.901634 63.218244 228.774445 63.165561 228.641844 63.165561 
C 228.509242 63.165561 228.382054 63.218244 228.28829 63.312007 
C 228.194527 63.405771 228.141844 63.532959 228.141844 63.665561 
C 228.141844 63.798162 228.194527 63.925351 228.28829 64.019114 
C 228.382054 64.112878 228.509242 64.165561 228.641844 64.165561 
z
" style="fill:#1f77b4;stroke:#1f77b4;"/>
    <path clip-path="url(#p2de3a40107)" d="M 228.641844 62.169287 
C 228.774445 62.169287 228.901634 62.116603 228.995397 62.02284 
C 229.089161 61.929077 229.141844 61.801888 229.141844 61.669287 
C 229.141844 61.536685 229.089161 61.409497 228.995397 61.315733 
C 228.901634 61.22197 228.774445 61.169287 228.641844 61.169287 
C 228.509242 61.169287 228.382054 61.22197 228.28829 61.315733 
C 228.194527 61.409497 228.141844 61.536685 228.141844 61.669287 
C 228.141844 61.801888 228.194527 61.929077 228.28829 62.02284 
C 228.382054 62.116603 228.509242 62.169287 228.641844 62.169287 
z
" style="fill:#1f77b4;stroke:#1f77b4;"/>
    <path clip-path="url(#p2de3a40107)" d="M 228.641844 60.173012 
C 228.774445 60.173012 228.901634 60.120329 228.995397 60.026566 
C 229.089161 59.932802 229.141844 59.805614 229.141844 59.673012 
C 229.141844 59.540411 229.089161 59.413223 228.995397 59.319459 
C 228.901634 59.225696 228.774445 59.173012 228.641844 59.173012 
C 228.509242 59.173012 228.382054 59.225696 228.28829 59.319459 
C 228.194527 59.413223 228.141844 59.540411 228.141844 59.673012 
C 228.141844 59.805614 228.194527 59.932802 228.28829 60.026566 
C 228.382054 60.120329 228.509242 60.173012 228.641844 60.173012 
z
" style="fill:#1f77b4;stroke:#1f77b4;"/>
    <path clip-path="url(#p2de3a40107)" d="M 228.641844 58.176738 
C 228.774445 58.176738 228.901634 58.124055 228.995397 58.030292 
C 229.089161 57.936528 229.141844 57.80934 229.141844 57.676738 
C 229.141844 57.544137 229.089161 57.416948 228.995397 57.323185 
C 228.901634 57.229422 228.774445 57.176738 228.641844 57.176738 
C 228.509242 57.176738 228.382054 57.229422 228.28829 57.323185 
C 228.194527 57.416948 228.141844 57.544137 228.141844 57.676738 
C 228.141844 57.80934 228.194527 57.936528 228.28829 58.030292 
C 228.382054 58.124055 228.509242 58.176738 228.641844 58.176738 
z
" style="fill:#1f77b4;stroke:#1f77b4;"/>
    <path clip-path="url(#p2de3a40107)" d="M 228.641844 56.180464 
C 228.774445 56.180464 228.901634 56.127781 228.995397 56.034018 
C 229.089161 55.940254 229.141844 55.813066 229.141844 55.680464 
C 229.141844 55.547863 229.089161 55.420674 228.995397 55.326911 
C 228.901634 55.233147 228.774445 55.180464 228.641844 55.180464 
C 228.509242 55.180464 228.382054 55.233147 228.28829 55.326911 
C 228.194527 55.420674 228.141844 55.547863 228.141844 55.680464 
C 228.141844 55.813066 228.194527 55.940254 228.28829 56.034018 
C 228.382054 56.127781 228.509242 56.180464 228.641844 56.180464 
z
" style="fill:#1f77b4;stroke:#1f77b4;"/>
    <path clip-path="url(#p2de3a40107)" d="M 228.641844 54.18419 
C 228.774445 54.18419 228.901634 54.131507 228.995397 54.037743 
C 229.089161 53.94398 229.141844 53.816792 229.141844 53.68419 
C 229.141844 53.551589 229.089161 53.4244 228.995397 53.330637 
C 228.901634 53.236873 228.774445 53.18419 228.641844 53.18419 
C 228.509242 53.18419 228.382054 53.236873 228.28829 53.330637 
C 228.194527 53.4244 228.141844 53.551589 228.141844 53.68419 
C 228.141844 53.816792 228.194527 53.94398 228.28829 54.037743 
C 228.382054 54.131507 228.509242 54.18419 228.641844 54.18419 
z
" style="fill:#1f77b4;stroke:#1f77b4;"/>
    <path clip-path="url(#p2de3a40107)" d="M 228.641844 52.187916 
C 228.774445 52.187916 228.901634 52.135233 228.995397 52.041469 
C 229.089161 51.947706 229.141844 51.820518 229.141844 51.687916 
C 229.141844 51.555314 229.089161 51.428126 228.995397 51.334363 
C 228.901634 51.240599 228.774445 51.187916 228.641844 51.187916 
C 228.509242 51.187916 228.382054 51.240599 228.28829 51.334363 
C 228.194527 51.428126 228.141844 51.555314 228.141844 51.687916 
C 228.141844 51.820518 228.194527 51.947706 228.28829 52.041469 
C 228.382054 52.135233 228.509242 52.187916 228.641844 52.187916 
z
" style="fill:#1f77b4;stroke:#1f77b4;"/>
    <path clip-path="url(#p2de3a40107)" d="M 228.641844 50.191642 
C 228.774445 50.191642 228.901634 50.138959 228.995397 50.045195 
C 229.089161 49.951432 229.141844 49.824243 229.141844 49.691642 
C 229.141844 49.55904 229.089161 49.431852 228.995397 49.338088 
C 228.901634 49.244325 228.774445 49.191642 228.641844 49.191642 
C 228.509242 49.191642 228.382054 49.244325 228.28829 49.338088 
C 228.194527 49.431852 228.141844 49.55904 228.141844 49.691642 
C 228.141844 49.824243 228.194527 49.951432 228.28829 50.045195 
C 228.382054 50.138959 228.509242 50.191642 228.641844 50.191642 
z
" style="fill:#1f77b4;stroke:#1f77b4;"/>
    <path clip-path="url(#p2de3a40107)" d="M 228.641844 48.195368 
C 228.774445 48.195368 228.901634 48.142685 228.995397 48.048921 
C 229.089161 47.955158 229.141844 47.827969 229.141844 47.695368 
C 229.141844 47.562766 229.089161 47.435578 228.995397 47.341814 
C 228.901634 47.248051 228.774445 47.195368 228.641844 47.195368 
C 228.509242 47.195368 228.382054 47.248051 228.28829 47.341814 
C 228.194527 47.435578 228.141844 47.562766 228.141844 47.695368 
C 228.141844 47.827969 228.194527 47.955158 228.28829 48.048921 
C 228.382054 48.142685 228.509242 48.195368 228.641844 48.195368 
z
" style="fill:#1f77b4;stroke:#1f77b4;"/>
    <path clip-path="url(#p2de3a40107)" d="M 228.641844 46.199094 
C 228.774445 46.199094 228.901634 46.14641 228.995397 46.052647 
C 229.089161 45.958884 229.141844 45.831695 229.141844 45.699094 
C 229.141844 45.566492 229.089161 45.439304 228.995397 45.34554 
C 228.901634 45.251777 228.774445 45.199094 228.641844 45.199094 
C 228.509242 45.199094 228.382054 45.251777 228.28829 45.34554 
C 228.194527 45.439304 228.141844 45.566492 228.141844 45.699094 
C 228.141844 45.831695 228.194527 45.958884 228.28829 46.052647 
C 228.382054 46.14641 228.509242 46.199094 228.641844 46.199094 
z
" style="fill:#1f77b4;stroke:#1f77b4;"/>
    <path clip-path="url(#p2de3a40107)" d="M 228.641844 44.202819 
C 228.774445 44.202819 228.901634 44.150136 228.995397 44.056373 
C 229.089161 43.962609 229.141844 43.835421 229.141844 43.702819 
C 229.141844 43.570218 229.089161 43.44303 228.995397 43.349266 
C 228.901634 43.255503 228.774445 43.202819 228.641844 43.202819 
C 228.509242 43.202819 228.382054 43.255503 228.28829 43.349266 
C 228.194527 43.44303 228.141844 43.570218 228.141844 43.702819 
C 228.141844 43.835421 228.194527 43.962609 228.28829 44.056373 
C 228.382054 44.150136 228.509242 44.202819 228.641844 44.202819 
z
" style="fill:#1f77b4;stroke:#1f77b4;"/>
    <path clip-path="url(#p2de3a40107)" d="M 228.641844 42.206545 
C 228.774445 42.206545 228.901634 42.153862 228.995397 42.060099 
C 229.089161 41.966335 229.141844 41.839147 229.141844 41.706545 
C 229.141844 41.573944 229.089161 41.446755 228.995397 41.352992 
C 228.901634 41.259229 228.774445 41.206545 228.641844 41.206545 
C 228.509242 41.206545 228.382054 41.259229 228.28829 41.352992 
C 228.194527 41.446755 228.141844 41.573944 228.141844 41.706545 
C 228.141844 41.839147 228.194527 41.966335 228.28829 42.060099 
C 228.382054 42.153862 228.509242 42.206545 228.641844 42.206545 
z
" style="fill:#1f77b4;stroke:#1f77b4;"/>
    <path clip-path="url(#p2de3a40107)" d="M 228.641844 40.210271 
C 228.774445 40.210271 228.901634 40.157588 228.995397 40.063825 
C 229.089161 39.970061 229.141844 39.842873 229.141844 39.710271 
C 229.141844 39.57767 229.089161 39.450481 228.995397 39.356718 
C 228.901634 39.262954 228.774445 39.210271 228.641844 39.210271 
C 228.509242 39.210271 228.382054 39.262954 228.28829 39.356718 
C 228.194527 39.450481 228.141844 39.57767 228.141844 39.710271 
C 228.141844 39.842873 228.194527 39.970061 228.28829 40.063825 
C 228.382054 40.157588 228.509242 40.210271 228.641844 40.210271 
z
" style="fill:#1f77b4;stroke:#1f77b4;"/>
    <path clip-path="url(#p2de3a40107)" d="M 228.641844 38.213997 
C 228.774445 38.213997 228.901634 38.161314 228.995397 38.067551 
C 229.089161 37.973787 229.141844 37.846599 229.141844 37.713997 
C 229.141844 37.581396 229.089161 37.454207 228.995397 37.360444 
C 228.901634 37.26668 228.774445 37.213997 228.641844 37.213997 
C 228.509242 37.213997 228.382054 37.26668 228.28829 37.360444 
C 228.194527 37.454207 228.141844 37.581396 228.141844 37.713997 
C 228.141844 37.846599 228.194527 37.973787 228.28829 38.067551 
C 228.382054 38.161314 228.509242 38.213997 228.641844 38.213997 
z
" style="fill:#1f77b4;stroke:#1f77b4;"/>
    <path clip-path="url(#p2de3a40107)" d="M 228.641844 36.217723 
C 228.774445 36.217723 228.901634 36.16504 228.995397 36.071276 
C 229.089161 35.977513 229.141844 35.850325 229.141844 35.717723 
C 229.141844 35.585121 229.089161 35.457933 228.995397 35.36417 
C 228.901634 35.270406 228.774445 35.217723 228.641844 35.217723 
C 228.509242 35.217723 228.382054 35.270406 228.28829 35.36417 
C 228.194527 35.457933 228.141844 35.585121 228.141844 35.717723 
C 228.141844 35.850325 228.194527 35.977513 228.28829 36.071276 
C 228.382054 36.16504 228.509242 36.217723 228.641844 36.217723 
z
" style="fill:#1f77b4;stroke:#1f77b4;"/>
    <path clip-path="url(#p2de3a40107)" d="M 228.641844 34.221449 
C 228.774445 34.221449 228.901634 34.168766 228.995397 34.075002 
C 229.089161 33.981239 229.141844 33.85405 229.141844 33.721449 
C 229.141844 33.588847 229.089161 33.461659 228.995397 33.367895 
C 228.901634 33.274132 228.774445 33.221449 228.641844 33.221449 
C 228.509242 33.221449 228.382054 33.274132 228.28829 33.367895 
C 228.194527 33.461659 228.141844 33.588847 228.141844 33.721449 
C 228.141844 33.85405 228.194527 33.981239 228.28829 34.075002 
C 228.382054 34.168766 228.509242 34.221449 228.641844 34.221449 
z
" style="fill:#1f77b4;stroke:#1f77b4;"/>
   </g>
   <g id="matplotlib.axis_1">
    <g id="xtick_1">
     <g id="line2d_1">
      <path clip-path="url(#p2de3a40107)" d="M 73.598303 241.277813 
L 73.598303 23.837812 
" style="fill:none;stroke:#b0b0b0;stroke-linecap:square;stroke-width:0.8;"/>
     </g>
     <g id="line2d_2">
      <defs>
       <path d="M 0 0 
L 0 3.5 
" id="m851db053a2" style="stroke:#000000;stroke-width:0.8;"/>
      </defs>
      <g>
       <use style="stroke:#000000;stroke-width:0.8;" x="73.598303" xlink:href="#m851db053a2" y="241.277813"/>
      </g>
     </g>
     <g id="text_1">
      <!-- 4.3 -->
      <defs>
       <path d="M 37.796875 64.3125 
L 12.890625 25.390625 
L 37.796875 25.390625 
z
M 35.203125 72.90625 
L 47.609375 72.90625 
L 47.609375 25.390625 
L 58.015625 25.390625 
L 58.015625 17.1875 
L 47.609375 17.1875 
L 47.609375 0 
L 37.796875 0 
L 37.796875 17.1875 
L 4.890625 17.1875 
L 4.890625 26.703125 
z
" id="DejaVuSans-52"/>
       <path d="M 10.6875 12.40625 
L 21 12.40625 
L 21 0 
L 10.6875 0 
z
" id="DejaVuSans-46"/>
       <path d="M 40.578125 39.3125 
Q 47.65625 37.796875 51.625 33 
Q 55.609375 28.21875 55.609375 21.1875 
Q 55.609375 10.40625 48.1875 4.484375 
Q 40.765625 -1.421875 27.09375 -1.421875 
Q 22.515625 -1.421875 17.65625 -0.515625 
Q 12.796875 0.390625 7.625 2.203125 
L 7.625 11.71875 
Q 11.71875 9.328125 16.59375 8.109375 
Q 21.484375 6.890625 26.8125 6.890625 
Q 36.078125 6.890625 40.9375 10.546875 
Q 45.796875 14.203125 45.796875 21.1875 
Q 45.796875 27.640625 41.28125 31.265625 
Q 36.765625 34.90625 28.71875 34.90625 
L 20.21875 34.90625 
L 20.21875 43.015625 
L 29.109375 43.015625 
Q 36.375 43.015625 40.234375 45.921875 
Q 44.09375 48.828125 44.09375 54.296875 
Q 44.09375 59.90625 40.109375 62.90625 
Q 36.140625 65.921875 28.71875 65.921875 
Q 24.65625 65.921875 20.015625 65.03125 
Q 15.375 64.15625 9.8125 62.3125 
L 9.8125 71.09375 
Q 15.4375 72.65625 20.34375 73.4375 
Q 25.25 74.21875 29.59375 74.21875 
Q 40.828125 74.21875 47.359375 69.109375 
Q 53.90625 64.015625 53.90625 55.328125 
Q 53.90625 49.265625 50.4375 45.09375 
Q 46.96875 40.921875 40.578125 39.3125 
z
" id="DejaVuSans-51"/>
      </defs>
      <g transform="translate(65.646741 255.87625)scale(0.1 -0.1)">
       <use xlink:href="#DejaVuSans-52"/>
       <use x="63.623047" xlink:href="#DejaVuSans-46"/>
       <use x="95.410156" xlink:href="#DejaVuSans-51"/>
      </g>
     </g>
    </g>
    <g id="xtick_2">
     <g id="line2d_3">
      <path clip-path="url(#p2de3a40107)" d="M 140.774881 241.277813 
L 140.774881 23.837812 
" style="fill:none;stroke:#b0b0b0;stroke-linecap:square;stroke-width:0.8;"/>
     </g>
     <g id="line2d_4">
      <g>
       <use style="stroke:#000000;stroke-width:0.8;" x="140.774881" xlink:href="#m851db053a2" y="241.277813"/>
      </g>
     </g>
     <g id="text_2">
      <!-- 4.4 -->
      <g transform="translate(132.823318 255.87625)scale(0.1 -0.1)">
       <use xlink:href="#DejaVuSans-52"/>
       <use x="63.623047" xlink:href="#DejaVuSans-46"/>
       <use x="95.410156" xlink:href="#DejaVuSans-52"/>
      </g>
     </g>
    </g>
    <g id="xtick_3">
     <g id="line2d_5">
      <path clip-path="url(#p2de3a40107)" d="M 207.951458 241.277813 
L 207.951458 23.837812 
" style="fill:none;stroke:#b0b0b0;stroke-linecap:square;stroke-width:0.8;"/>
     </g>
     <g id="line2d_6">
      <g>
       <use style="stroke:#000000;stroke-width:0.8;" x="207.951458" xlink:href="#m851db053a2" y="241.277813"/>
      </g>
     </g>
     <g id="text_3">
      <!-- 4.5 -->
      <defs>
       <path d="M 10.796875 72.90625 
L 49.515625 72.90625 
L 49.515625 64.59375 
L 19.828125 64.59375 
L 19.828125 46.734375 
Q 21.96875 47.46875 24.109375 47.828125 
Q 26.265625 48.1875 28.421875 48.1875 
Q 40.625 48.1875 47.75 41.5 
Q 54.890625 34.8125 54.890625 23.390625 
Q 54.890625 11.625 47.5625 5.09375 
Q 40.234375 -1.421875 26.90625 -1.421875 
Q 22.3125 -1.421875 17.546875 -0.640625 
Q 12.796875 0.140625 7.71875 1.703125 
L 7.71875 11.625 
Q 12.109375 9.234375 16.796875 8.0625 
Q 21.484375 6.890625 26.703125 6.890625 
Q 35.15625 6.890625 40.078125 11.328125 
Q 45.015625 15.765625 45.015625 23.390625 
Q 45.015625 31 40.078125 35.4375 
Q 35.15625 39.890625 26.703125 39.890625 
Q 22.75 39.890625 18.8125 39.015625 
Q 14.890625 38.140625 10.796875 36.28125 
z
" id="DejaVuSans-53"/>
      </defs>
      <g transform="translate(199.999895 255.87625)scale(0.1 -0.1)">
       <use xlink:href="#DejaVuSans-52"/>
       <use x="63.623047" xlink:href="#DejaVuSans-46"/>
       <use x="95.410156" xlink:href="#DejaVuSans-53"/>
      </g>
     </g>
    </g>
    <g id="xtick_4">
     <g id="line2d_7">
      <path clip-path="url(#p2de3a40107)" d="M 275.128035 241.277813 
L 275.128035 23.837812 
" style="fill:none;stroke:#b0b0b0;stroke-linecap:square;stroke-width:0.8;"/>
     </g>
     <g id="line2d_8">
      <g>
       <use style="stroke:#000000;stroke-width:0.8;" x="275.128035" xlink:href="#m851db053a2" y="241.277813"/>
      </g>
     </g>
     <g id="text_4">
      <!-- 4.6 -->
      <defs>
       <path d="M 33.015625 40.375 
Q 26.375 40.375 22.484375 35.828125 
Q 18.609375 31.296875 18.609375 23.390625 
Q 18.609375 15.53125 22.484375 10.953125 
Q 26.375 6.390625 33.015625 6.390625 
Q 39.65625 6.390625 43.53125 10.953125 
Q 47.40625 15.53125 47.40625 23.390625 
Q 47.40625 31.296875 43.53125 35.828125 
Q 39.65625 40.375 33.015625 40.375 
z
M 52.59375 71.296875 
L 52.59375 62.3125 
Q 48.875 64.0625 45.09375 64.984375 
Q 41.3125 65.921875 37.59375 65.921875 
Q 27.828125 65.921875 22.671875 59.328125 
Q 17.53125 52.734375 16.796875 39.40625 
Q 19.671875 43.65625 24.015625 45.921875 
Q 28.375 48.1875 33.59375 48.1875 
Q 44.578125 48.1875 50.953125 41.515625 
Q 57.328125 34.859375 57.328125 23.390625 
Q 57.328125 12.15625 50.6875 5.359375 
Q 44.046875 -1.421875 33.015625 -1.421875 
Q 20.359375 -1.421875 13.671875 8.265625 
Q 6.984375 17.96875 6.984375 36.375 
Q 6.984375 53.65625 15.1875 63.9375 
Q 23.390625 74.21875 37.203125 74.21875 
Q 40.921875 74.21875 44.703125 73.484375 
Q 48.484375 72.75 52.59375 71.296875 
z
" id="DejaVuSans-54"/>
      </defs>
      <g transform="translate(267.176473 255.87625)scale(0.1 -0.1)">
       <use xlink:href="#DejaVuSans-52"/>
       <use x="63.623047" xlink:href="#DejaVuSans-46"/>
       <use x="95.410156" xlink:href="#DejaVuSans-54"/>
      </g>
     </g>
    </g>
    <g id="xtick_5">
     <g id="line2d_9">
      <path clip-path="url(#p2de3a40107)" d="M 342.304613 241.277813 
L 342.304613 23.837812 
" style="fill:none;stroke:#b0b0b0;stroke-linecap:square;stroke-width:0.8;"/>
     </g>
     <g id="line2d_10">
      <g>
       <use style="stroke:#000000;stroke-width:0.8;" x="342.304613" xlink:href="#m851db053a2" y="241.277813"/>
      </g>
     </g>
     <g id="text_5">
      <!-- 4.7 -->
      <defs>
       <path d="M 8.203125 72.90625 
L 55.078125 72.90625 
L 55.078125 68.703125 
L 28.609375 0 
L 18.3125 0 
L 43.21875 64.59375 
L 8.203125 64.59375 
z
" id="DejaVuSans-55"/>
      </defs>
      <g transform="translate(334.35305 255.87625)scale(0.1 -0.1)">
       <use xlink:href="#DejaVuSans-52"/>
       <use x="63.623047" xlink:href="#DejaVuSans-46"/>
       <use x="95.410156" xlink:href="#DejaVuSans-55"/>
      </g>
     </g>
    </g>
    <g id="text_6">
     <!--  -->
     <g transform="translate(228.641844 271.833906)scale(0.13 -0.13)"/>
     <!-- $x_{2} \longrightarrow $ -->
     <defs>
      <path d="M 60.015625 54.6875 
L 34.90625 27.875 
L 50.296875 0 
L 39.984375 0 
L 28.421875 21.6875 
L 8.296875 0 
L -2.59375 0 
L 24.3125 28.8125 
L 10.015625 54.6875 
L 20.3125 54.6875 
L 30.8125 34.90625 
L 49.125 54.6875 
z
" id="DejaVuSans-Oblique-120"/>
      <path d="M 19.1875 8.296875 
L 53.609375 8.296875 
L 53.609375 0 
L 7.328125 0 
L 7.328125 8.296875 
Q 12.9375 14.109375 22.625 23.890625 
Q 32.328125 33.6875 34.8125 36.53125 
Q 39.546875 41.84375 41.421875 45.53125 
Q 43.3125 49.21875 43.3125 52.78125 
Q 43.3125 58.59375 39.234375 62.25 
Q 35.15625 65.921875 28.609375 65.921875 
Q 23.96875 65.921875 18.8125 64.3125 
Q 13.671875 62.703125 7.8125 59.421875 
L 7.8125 69.390625 
Q 13.765625 71.78125 18.9375 73 
Q 24.125 74.21875 28.421875 74.21875 
Q 39.75 74.21875 46.484375 68.546875 
Q 53.21875 62.890625 53.21875 53.421875 
Q 53.21875 48.921875 51.53125 44.890625 
Q 49.859375 40.875 45.40625 35.40625 
Q 44.1875 33.984375 37.640625 27.21875 
Q 31.109375 20.453125 19.1875 8.296875 
z
" id="DejaVuSans-50"/>
      <path d="M 138.484375 33.546875 
L 138.484375 29.15625 
L 119.28125 9.96875 
L 113.421875 15.828125 
L 124.8125 27.203125 
L 5.71875 27.203125 
L 5.71875 35.5 
L 124.8125 35.5 
L 113.421875 46.875 
L 119.28125 52.734375 
z
" id="DejaVuSans-10230"/>
     </defs>
     <g transform="translate(209.856844 286.391062)scale(0.13 -0.13)">
      <use transform="translate(0 0.3125)" xlink:href="#DejaVuSans-Oblique-120"/>
      <use transform="translate(59.179688 -16.09375)scale(0.7)" xlink:href="#DejaVuSans-50"/>
      <use transform="translate(125.932617 0.3125)" xlink:href="#DejaVuSans-10230"/>
     </g>
    </g>
   </g>
   <g id="matplotlib.axis_2">
    <g id="ytick_1">
     <g id="line2d_11">
      <path clip-path="url(#p2de3a40107)" d="M 61.241844 231.394176 
L 396.041844 231.394176 
" style="fill:none;stroke:#b0b0b0;stroke-linecap:square;stroke-width:0.8;"/>
     </g>
     <g id="line2d_12">
      <defs>
       <path d="M 0 0 
L -3.5 0 
" id="ma9d622f830" style="stroke:#000000;stroke-width:0.8;"/>
      </defs>
      <g>
       <use style="stroke:#000000;stroke-width:0.8;" x="61.241844" xlink:href="#ma9d622f830" y="231.394176"/>
      </g>
     </g>
     <g id="text_7">
      <!-- 0.0 -->
      <defs>
       <path d="M 31.78125 66.40625 
Q 24.171875 66.40625 20.328125 58.90625 
Q 16.5 51.421875 16.5 36.375 
Q 16.5 21.390625 20.328125 13.890625 
Q 24.171875 6.390625 31.78125 6.390625 
Q 39.453125 6.390625 43.28125 13.890625 
Q 47.125 21.390625 47.125 36.375 
Q 47.125 51.421875 43.28125 58.90625 
Q 39.453125 66.40625 31.78125 66.40625 
z
M 31.78125 74.21875 
Q 44.046875 74.21875 50.515625 64.515625 
Q 56.984375 54.828125 56.984375 36.375 
Q 56.984375 17.96875 50.515625 8.265625 
Q 44.046875 -1.421875 31.78125 -1.421875 
Q 19.53125 -1.421875 13.0625 8.265625 
Q 6.59375 17.96875 6.59375 36.375 
Q 6.59375 54.828125 13.0625 64.515625 
Q 19.53125 74.21875 31.78125 74.21875 
z
" id="DejaVuSans-48"/>
      </defs>
      <g transform="translate(38.338719 235.193395)scale(0.1 -0.1)">
       <use xlink:href="#DejaVuSans-48"/>
       <use x="63.623047" xlink:href="#DejaVuSans-46"/>
       <use x="95.410156" xlink:href="#DejaVuSans-48"/>
      </g>
     </g>
    </g>
    <g id="ytick_2">
     <g id="line2d_13">
      <path clip-path="url(#p2de3a40107)" d="M 61.241844 189.805132 
L 396.041844 189.805132 
" style="fill:none;stroke:#b0b0b0;stroke-linecap:square;stroke-width:0.8;"/>
     </g>
     <g id="line2d_14">
      <g>
       <use style="stroke:#000000;stroke-width:0.8;" x="61.241844" xlink:href="#ma9d622f830" y="189.805132"/>
      </g>
     </g>
     <g id="text_8">
      <!-- 0.5 -->
      <g transform="translate(38.338719 193.604351)scale(0.1 -0.1)">
       <use xlink:href="#DejaVuSans-48"/>
       <use x="63.623047" xlink:href="#DejaVuSans-46"/>
       <use x="95.410156" xlink:href="#DejaVuSans-53"/>
      </g>
     </g>
    </g>
    <g id="ytick_3">
     <g id="line2d_15">
      <path clip-path="url(#p2de3a40107)" d="M 61.241844 148.216088 
L 396.041844 148.216088 
" style="fill:none;stroke:#b0b0b0;stroke-linecap:square;stroke-width:0.8;"/>
     </g>
     <g id="line2d_16">
      <g>
       <use style="stroke:#000000;stroke-width:0.8;" x="61.241844" xlink:href="#ma9d622f830" y="148.216088"/>
      </g>
     </g>
     <g id="text_9">
      <!-- 1.0 -->
      <defs>
       <path d="M 12.40625 8.296875 
L 28.515625 8.296875 
L 28.515625 63.921875 
L 10.984375 60.40625 
L 10.984375 69.390625 
L 28.421875 72.90625 
L 38.28125 72.90625 
L 38.28125 8.296875 
L 54.390625 8.296875 
L 54.390625 0 
L 12.40625 0 
z
" id="DejaVuSans-49"/>
      </defs>
      <g transform="translate(38.338719 152.015306)scale(0.1 -0.1)">
       <use xlink:href="#DejaVuSans-49"/>
       <use x="63.623047" xlink:href="#DejaVuSans-46"/>
       <use x="95.410156" xlink:href="#DejaVuSans-48"/>
      </g>
     </g>
    </g>
    <g id="ytick_4">
     <g id="line2d_17">
      <path clip-path="url(#p2de3a40107)" d="M 61.241844 106.627043 
L 396.041844 106.627043 
" style="fill:none;stroke:#b0b0b0;stroke-linecap:square;stroke-width:0.8;"/>
     </g>
     <g id="line2d_18">
      <g>
       <use style="stroke:#000000;stroke-width:0.8;" x="61.241844" xlink:href="#ma9d622f830" y="106.627043"/>
      </g>
     </g>
     <g id="text_10">
      <!-- 1.5 -->
      <g transform="translate(38.338719 110.426262)scale(0.1 -0.1)">
       <use xlink:href="#DejaVuSans-49"/>
       <use x="63.623047" xlink:href="#DejaVuSans-46"/>
       <use x="95.410156" xlink:href="#DejaVuSans-53"/>
      </g>
     </g>
    </g>
    <g id="ytick_5">
     <g id="line2d_19">
      <path clip-path="url(#p2de3a40107)" d="M 61.241844 65.037999 
L 396.041844 65.037999 
" style="fill:none;stroke:#b0b0b0;stroke-linecap:square;stroke-width:0.8;"/>
     </g>
     <g id="line2d_20">
      <g>
       <use style="stroke:#000000;stroke-width:0.8;" x="61.241844" xlink:href="#ma9d622f830" y="65.037999"/>
      </g>
     </g>
     <g id="text_11">
      <!-- 2.0 -->
      <g transform="translate(38.338719 68.837218)scale(0.1 -0.1)">
       <use xlink:href="#DejaVuSans-50"/>
       <use x="63.623047" xlink:href="#DejaVuSans-46"/>
       <use x="95.410156" xlink:href="#DejaVuSans-48"/>
      </g>
     </g>
    </g>
    <g id="text_12">
     <!-- $x_{3} \longrightarrow $ -->
     <g transform="translate(17.077969 151.342812)rotate(-90)scale(0.13 -0.13)">
      <use transform="translate(0 0.3125)" xlink:href="#DejaVuSans-Oblique-120"/>
      <use transform="translate(59.179688 -16.09375)scale(0.7)" xlink:href="#DejaVuSans-51"/>
      <use transform="translate(125.932617 0.3125)" xlink:href="#DejaVuSans-10230"/>
     </g>
     <!--  -->
     <g transform="translate(31.635125 132.557812)rotate(-90)scale(0.13 -0.13)"/>
    </g>
   </g>
   <g id="patch_3">
    <path d="M 61.241844 241.277812 
L 61.241844 23.837812 
" style="fill:none;stroke:#000000;stroke-linecap:square;stroke-linejoin:miter;stroke-width:0.8;"/>
   </g>
   <g id="patch_4">
    <path d="M 396.041844 241.277812 
L 396.041844 23.837812 
" style="fill:none;stroke:#000000;stroke-linecap:square;stroke-linejoin:miter;stroke-width:0.8;"/>
   </g>
   <g id="patch_5">
    <path d="M 61.241844 241.277813 
L 396.041844 241.277813 
" style="fill:none;stroke:#000000;stroke-linecap:square;stroke-linejoin:miter;stroke-width:0.8;"/>
   </g>
   <g id="patch_6">
    <path d="M 61.241844 23.837812 
L 396.041844 23.837812 
" style="fill:none;stroke:#000000;stroke-linecap:square;stroke-linejoin:miter;stroke-width:0.8;"/>
   </g>
   <g id="text_13">
    <!-- $x_{1} = 0 \ Plane$ -->
    <defs>
     <path d="M 10.59375 45.40625 
L 73.1875 45.40625 
L 73.1875 37.203125 
L 10.59375 37.203125 
z
M 10.59375 25.484375 
L 73.1875 25.484375 
L 73.1875 17.1875 
L 10.59375 17.1875 
z
" id="DejaVuSans-61"/>
     <path d="M 16.890625 72.90625 
L 39.703125 72.90625 
Q 49.65625 72.90625 54.875 68.265625 
Q 60.109375 63.625 60.109375 54.6875 
Q 60.109375 42.671875 52.390625 35.984375 
Q 44.671875 29.296875 30.71875 29.296875 
L 18.3125 29.296875 
L 12.59375 0 
L 2.6875 0 
z
M 25.203125 64.796875 
L 19.921875 37.40625 
L 32.328125 37.40625 
Q 40.71875 37.40625 45.203125 41.703125 
Q 49.703125 46 49.703125 54 
Q 49.703125 59.125 46.65625 61.953125 
Q 43.609375 64.796875 38.09375 64.796875 
z
" id="DejaVuSans-Oblique-80"/>
     <path d="M 18.3125 75.984375 
L 27.296875 75.984375 
L 12.5 0 
L 3.515625 0 
z
" id="DejaVuSans-Oblique-108"/>
     <path d="M 53.71875 31.203125 
L 47.609375 0 
L 38.625 0 
L 40.28125 8.296875 
Q 36.328125 3.421875 31.265625 1 
Q 26.21875 -1.421875 20.015625 -1.421875 
Q 13.03125 -1.421875 8.5625 2.84375 
Q 4.109375 7.125 4.109375 13.8125 
Q 4.109375 23.390625 11.75 28.953125 
Q 19.390625 34.515625 32.8125 34.515625 
L 45.3125 34.515625 
L 45.796875 36.921875 
Q 45.90625 37.3125 45.953125 37.765625 
Q 46 38.234375 46 39.203125 
Q 46 43.5625 42.453125 45.96875 
Q 38.921875 48.390625 32.515625 48.390625 
Q 28.125 48.390625 23.5 47.265625 
Q 18.890625 46.140625 14.015625 43.890625 
L 15.578125 52.203125 
Q 20.65625 54.109375 25.515625 55.046875 
Q 30.375 56 34.90625 56 
Q 44.578125 56 49.625 51.796875 
Q 54.6875 47.609375 54.6875 39.59375 
Q 54.6875 37.984375 54.4375 35.8125 
Q 54.203125 33.640625 53.71875 31.203125 
z
M 44 27.484375 
L 35.015625 27.484375 
Q 23.96875 27.484375 18.671875 24.53125 
Q 13.375 21.578125 13.375 15.375 
Q 13.375 11.078125 16.078125 8.640625 
Q 18.796875 6.203125 23.578125 6.203125 
Q 30.90625 6.203125 36.375 11.453125 
Q 41.84375 16.703125 43.609375 25.484375 
z
" id="DejaVuSans-Oblique-97"/>
     <path d="M 55.71875 33.015625 
L 49.3125 0 
L 40.28125 0 
L 46.6875 32.671875 
Q 47.125 34.96875 47.359375 36.71875 
Q 47.609375 38.484375 47.609375 39.5 
Q 47.609375 43.609375 45.015625 45.890625 
Q 42.4375 48.1875 37.796875 48.1875 
Q 30.5625 48.1875 25.34375 43.375 
Q 20.125 38.578125 18.5 30.328125 
L 12.5 0 
L 3.515625 0 
L 14.109375 54.6875 
L 23.09375 54.6875 
L 21.296875 46.09375 
Q 25.046875 50.828125 30.3125 53.40625 
Q 35.59375 56 41.40625 56 
Q 48.640625 56 52.609375 52.09375 
Q 56.59375 48.1875 56.59375 41.109375 
Q 56.59375 39.359375 56.375 37.359375 
Q 56.15625 35.359375 55.71875 33.015625 
z
" id="DejaVuSans-Oblique-110"/>
     <path d="M 48.09375 32.234375 
Q 48.25 33.015625 48.3125 33.84375 
Q 48.390625 34.671875 48.390625 35.5 
Q 48.390625 41.453125 44.890625 44.921875 
Q 41.40625 48.390625 35.40625 48.390625 
Q 28.71875 48.390625 23.578125 44.15625 
Q 18.453125 39.9375 15.828125 32.171875 
z
M 55.90625 25.203125 
L 14.109375 25.203125 
Q 13.8125 23.34375 13.71875 22.265625 
Q 13.625 21.1875 13.625 20.40625 
Q 13.625 13.625 17.796875 9.90625 
Q 21.96875 6.203125 29.59375 6.203125 
Q 35.453125 6.203125 40.671875 7.515625 
Q 45.90625 8.84375 50.390625 11.375 
L 48.6875 2.484375 
Q 43.84375 0.53125 38.6875 -0.4375 
Q 33.546875 -1.421875 28.21875 -1.421875 
Q 16.84375 -1.421875 10.71875 4.015625 
Q 4.59375 9.46875 4.59375 19.484375 
Q 4.59375 28.03125 7.640625 35.375 
Q 10.6875 42.71875 16.609375 48.484375 
Q 20.40625 52.09375 25.65625 54.046875 
Q 30.90625 56 36.8125 56 
Q 46.09375 56 51.578125 50.4375 
Q 57.078125 44.875 57.078125 35.5 
Q 57.078125 33.25 56.78125 30.6875 
Q 56.5 28.125 55.90625 25.203125 
z
" id="DejaVuSans-Oblique-101"/>
    </defs>
    <g transform="translate(186.641844 17.837812)scale(0.14 -0.14)">
     <use transform="translate(0 0.015625)" xlink:href="#DejaVuSans-Oblique-120"/>
     <use transform="translate(59.179688 -16.390625)scale(0.7)" xlink:href="#DejaVuSans-49"/>
     <use transform="translate(125.932617 0.015625)" xlink:href="#DejaVuSans-61"/>
     <use transform="translate(229.204102 0.015625)" xlink:href="#DejaVuSans-48"/>
     <use transform="translate(325.297527 0.015625)" xlink:href="#DejaVuSans-Oblique-80"/>
     <use transform="translate(385.600261 0.015625)" xlink:href="#DejaVuSans-Oblique-108"/>
     <use transform="translate(413.383464 0.015625)" xlink:href="#DejaVuSans-Oblique-97"/>
     <use transform="translate(474.662761 0.015625)" xlink:href="#DejaVuSans-Oblique-110"/>
     <use transform="translate(538.041667 0.015625)" xlink:href="#DejaVuSans-Oblique-101"/>
    </g>
   </g>
  </g>
 </g>
 <defs>
  <clipPath id="p2de3a40107">
   <rect height="217.44" width="334.8" x="61.241844" y="23.837812"/>
  </clipPath>
 </defs>
</svg>
